<?xml version="1.0" encoding="utf-8"?>
<!-- Generator: Adobe Illustrator 22.1.0, SVG Export Plug-In . SVG Version: 6.00 Build 0)  -->
<svg version="1.1" id="Capa_1" xmlns="http://www.w3.org/2000/svg" xmlns:xlink="http://www.w3.org/1999/xlink" x="0px" y="0px"
	 viewBox="0 0 341.1 341.1" style="enable-background:new 0 0 341.1 341.1;" xml:space="preserve">
<style type="text/css">
	.st0{fill:#F6BC3F;}
</style>
<path class="st0" d="M170.6,0C76.4,0,0,76.4,0,170.6s76.4,170.6,170.6,170.6s170.6-76.4,170.6-170.6S264.8,0,170.6,0z M266.4,260.2
	c0,6.4-5.1,11.5-11.5,11.5h-55.6c-3.2,0-5.8-2.6-5.8-5.8v-53.7c0-3.2-2.6-5.8-5.8-5.8h-34.5c-3.2,0-5.8,2.6-5.8,5.8V266
	c0,3.2-2.6,5.8-5.8,5.8H86.2c-6.4,0-11.5-5.1-11.5-11.5v-68.7c0-1.7,0.8-3.4,2.1-4.5l90.1-74.2c2.1-1.7,5.2-1.7,7.3,0l90.1,74.2
	c1.3,1.1,2.1,2.7,2.1,4.5V260.2z M295,185.3c-2,2.4-5.7,2.8-8.1,0.8L174.2,93.3c-2.2-1.7-5.2-1.7-7.3,0L54.2,186.1
	c-2.4,2-6.1,1.7-8.1-0.8l-12.2-14.9c-2-2.4-1.7-6.1,0.8-8.1l121.3-99.9c8.5-7,20.7-7,29.2,0l42.9,35.3V63c0-3.2,2.6-5.8,5.8-5.8
	h26.8c3.2,0,5.8,2.6,5.8,5.8v66.4l40.1,33c2.4,2,2.8,5.6,0.8,8.1L295,185.3z"/>
</svg>
