<?xml version="1.0" encoding="utf-8"?>
<!-- Generator: Adobe Illustrator 22.1.0, SVG Export Plug-In . SVG Version: 6.00 Build 0)  -->
<svg version="1.1" id="Capa_1" xmlns="http://www.w3.org/2000/svg" xmlns:xlink="http://www.w3.org/1999/xlink" x="0px" y="0px"
	 viewBox="0 0 341.1 341.1" style="enable-background:new 0 0 341.1 341.1;" xml:space="preserve">
<style type="text/css">
	.st0{fill:#F6BC3F;}
</style>
<g>
	<circle class="st0" cx="170.6" cy="82.9" r="11"/>
	<circle class="st0" cx="126.7" cy="148.6" r="11"/>
	<circle class="st0" cx="126.7" cy="192.5" r="11"/>
	<path class="st0" d="M225.4,229h-65.8c-2,0-3.7,1.6-3.7,3.7v7.3c0,2,1.6,3.7,3.7,3.7h65.8c2,0,3.7-1.6,3.7-3.7v-7.3
		C229,230.7,227.4,229,225.4,229z"/>
	<circle class="st0" cx="126.7" cy="236.3" r="11"/>
	<path class="st0" d="M170.6,0C76.4,0,0,76.4,0,170.6s76.4,170.6,170.6,170.6s170.6-76.4,170.6-170.6S264.8,0,170.6,0z M258.2,265.6
		c0,12.1-9.8,21.9-21.9,21.9H104.8c-12.1,0-21.9-9.8-21.9-21.9V104.8c0-12.1,9.8-21.9,21.9-21.9h36.5c0-16.1,13.1-29.2,29.2-29.2
		s29.2,13.1,29.2,29.2h36.5c12.1,0,21.9,9.8,21.9,21.9V265.6z"/>
	<path class="st0" d="M225.4,141.3h-65.8c-2,0-3.7,1.6-3.7,3.7v7.3c0,2,1.6,3.7,3.7,3.7h65.8c2,0,3.7-1.6,3.7-3.7V145
		C229,143,227.4,141.3,225.4,141.3z"/>
	<path class="st0" d="M225.4,185.2h-65.8c-2,0-3.7,1.6-3.7,3.7v7.3c0,2,1.6,3.7,3.7,3.7h65.8c2,0,3.7-1.6,3.7-3.7v-7.3
		C229,186.8,227.4,185.2,225.4,185.2z"/>
</g>
</svg>
