<?xml version="1.0" encoding="utf-8"?>
<!-- Generator: Adobe Illustrator 22.1.0, SVG Export Plug-In . SVG Version: 6.00 Build 0)  -->
<svg version="1.1" id="Layer_1" xmlns="http://www.w3.org/2000/svg" xmlns:xlink="http://www.w3.org/1999/xlink" x="0px" y="0px"
	 viewBox="0 0 528.9 147.8" style="enable-background:new 0 0 528.9 147.8;" xml:space="preserve">
<style type="text/css">
	.st0{fill:#E6BB4A;stroke:#070809;stroke-width:0.8554;stroke-miterlimit:10;}
	.st1{fill:#E6BB4A;}
	.st2{fill:#E7BB4B;}
	.st3{fill:#070809;}
	.st4{fill:#181818;}
</style>
<g>
	<path class="st0" d="M102.1,97.9c-2.7,2.3-5.7,4.2-8.8,5.9l-58.6,32.5l-3.4-6.3l59-31.8c3.1-1.8,6.3-3.2,9.7-4.2l10.9-3.3
		L102.1,97.9z"/>
	<g>
		<path d="M33.5,129.9c0,0,57.7-31.4,61.1-32.9c7-3,10.5-3.3,10.5-3.3l-71,37.9L33.5,129.9z"/>
	</g>
	<g>
		<path d="M37.8,145.4c-0.3,0-0.6-0.2-0.9-0.7c-0.3-0.4-3-5.3-4.8-8.4c0,0,0,0-0.1,0c-0.1,0.1-0.3,0.1-0.4,0.1c0,0-0.1,0-0.1,0
			c-0.1,0.2-0.3,0.4-0.5,0.5c-0.2,0.1-0.4,0.2-0.6,0.2c0,0,0,0,0,0c-0.1,0.2-0.3,0.3-0.5,0.5c-0.2,0.1-0.4,0.2-0.6,0.2
			c0,0-0.1,0-0.1,0c-0.1,0.2-0.3,0.4-0.5,0.5c-0.2,0.1-0.4,0.2-0.6,0.2c0,0,0,0-0.1,0c-0.1,0.2-0.3,0.4-0.5,0.5
			c-0.2,0.1-0.4,0.2-0.6,0.2c0,0,0,0,0,0c-0.1,0.2-0.3,0.3-0.5,0.5c-0.2,0.1-0.4,0.2-0.6,0.2c0,0-0.1,0-0.1,0
			c-0.1,0.2-0.3,0.4-0.5,0.5c-0.2,0.1-0.4,0.2-0.6,0.2c0,0,0,0,0,0c-0.1,0.2-0.3,0.3-0.5,0.4c-0.2,0.1-0.4,0.2-0.6,0.2c0,0,0,0,0,0
			c-0.1,0.2-0.3,0.3-0.5,0.5c-0.2,0.1-0.4,0.2-0.6,0.2c0,0-0.1,0-0.1,0c-0.1,0.2-0.3,0.4-0.5,0.5c-0.1,0.1-0.2,0.1-0.3,0.1
			c-0.3,0.6-0.8,1.1-1.4,1.5c-0.5,0.3-1.1,0.5-1.7,0.5c-1.1,0-2-0.5-2.5-1.4c-0.3-0.6-0.4-1.3-0.2-2.1c0.2-0.8,0.8-1.6,1.6-2
			c0.5-0.3,1.1-0.5,1.7-0.5c0.1,0,0.2,0,0.3,0c0.1-0.1,0.1-0.1,0.2-0.1c0.2-0.1,0.4-0.2,0.6-0.2c0,0,0.1,0,0.1,0
			c0.1-0.2,0.3-0.4,0.5-0.5c0.2-0.1,0.4-0.2,0.6-0.2c0,0,0,0,0,0c0.1-0.2,0.3-0.3,0.5-0.5c0.2-0.1,0.4-0.2,0.6-0.2c0,0,0,0,0,0
			c0.1-0.2,0.3-0.3,0.5-0.4c0.2-0.1,0.4-0.2,0.6-0.2c0,0,0.1,0,0.1,0c0.1-0.2,0.3-0.4,0.5-0.5c0.2-0.1,0.4-0.2,0.6-0.2c0,0,0,0,0,0
			c0.1-0.2,0.3-0.3,0.5-0.5c0.2-0.1,0.4-0.2,0.6-0.2c0,0,0,0,0.1,0c0.1-0.2,0.3-0.4,0.5-0.5c0.2-0.1,0.4-0.2,0.6-0.2
			c0,0,0.1,0,0.1,0c0.1-0.2,0.3-0.4,0.5-0.5c0.2-0.1,0.4-0.2,0.6-0.2c0,0,0,0,0,0c0.1-0.2,0.3-0.3,0.5-0.5c0.2-0.1,0.4-0.2,0.6-0.2
			c0,0,0,0,0.1,0c0.1-0.2,0.2-0.3,0.4-0.4c0,0,0,0,0.1,0c-3-5.4-4.5-8.1-4.7-8.5c-0.3-0.6-0.2-1-0.1-1.1c0.1-0.2,0.3-0.4,1-0.8
			c0.9-0.5,2.6-0.9,2.6-0.9c0.1,0,0.2,0,0.2,0h0.1l0.1,0.1c0.1,0.1,0.1,0.3,0,0.9l-0.1,0.6c-0.1,0.9,0.4,1.7,1.1,2.7
			c0.3,0.4,0.6,0.8,0.8,1.3c0.8,1.5,2.2,3.2,2.2,3.3c0.9,1.4,0.9,1.5,0.9,1.6c0,0.1,0,0.4-0.1,1.2c0.3,0.2,0.9,0.5,1,0.5
			c0.1,0,0.2,0.1,0.9,1.6c0,0.1,0.8,2.1,1.7,3.6c0.3,0.4,0.5,0.9,0.7,1.3c0.5,1,0.9,1.9,1.7,2.3l0.6,0.3c0.6,0.3,0.7,0.3,0.7,0.5
			l0,0.2l-0.1,0.2c-0.1,0.1-1.3,1.3-2.2,1.8C38.5,145.2,38.1,145.4,37.8,145.4L37.8,145.4z"/>
		<path class="st1" d="M28.9,121.3c0.1,0,0,0.1-0.1,1.3c-0.2,1.4,1.1,2.6,1.9,4.1c0.8,1.5,2.2,3.3,2.2,3.3s0.8,1.3,0.8,1.5
			c0,0.1-0.1,1.2-0.1,1.3c0.1,0.1,1.1,0.5,1.2,0.6c0.1,0.1,0.8,1.5,0.8,1.5s0.8,2.1,1.7,3.6c0.9,1.5,1.2,3.2,2.5,3.8
			c1.3,0.6,1.2,0.5,1.1,0.7c0,0-1.3,1.2-2.1,1.7c-0.6,0.4-0.9,0.4-1,0.4c0,0,0,0,0,0s0,0,0,0c-0.1,0-0.3-0.1-0.6-0.5
			c-0.3-0.5-3.4-5.9-5-8.8c0,0.1-0.1,0.2-0.3,0.3c-0.1,0.1-0.2,0.1-0.3,0.1c-0.1,0-0.2,0-0.3-0.1c0,0.2-0.2,0.5-0.4,0.6
			c-0.1,0.1-0.3,0.1-0.4,0.1c-0.1,0-0.2,0-0.2,0c0,0.2-0.2,0.4-0.4,0.5c-0.1,0.1-0.3,0.1-0.4,0.1c-0.1,0-0.2,0-0.3-0.1
			c0,0.2-0.2,0.5-0.4,0.6c-0.1,0.1-0.3,0.1-0.4,0.1c-0.1,0-0.2,0-0.3-0.1c0,0.2-0.2,0.4-0.4,0.6c-0.1,0.1-0.3,0.1-0.4,0.1
			c-0.1,0-0.2,0-0.2,0c0,0.2-0.2,0.4-0.4,0.5c-0.1,0.1-0.3,0.1-0.4,0.1c-0.1,0-0.2,0-0.3-0.1c0,0.2-0.2,0.5-0.4,0.6
			c-0.1,0.1-0.3,0.1-0.4,0.1c-0.1,0-0.2,0-0.2,0c0,0.2-0.2,0.4-0.4,0.5c-0.1,0.1-0.3,0.1-0.4,0.1c-0.1,0-0.2,0-0.2,0
			c0,0.2-0.2,0.4-0.4,0.5c-0.1,0.1-0.3,0.1-0.4,0.1c-0.1,0-0.2,0-0.3-0.1c0,0.2-0.2,0.5-0.4,0.6c-0.1,0.1-0.1,0.1-0.2,0.1
			c0,0,0,0-0.1,0c0,0,0,0,0,0c-0.3,0.6-0.7,1.2-1.4,1.5c-0.5,0.3-1.1,0.4-1.6,0.4c-0.9,0-1.8-0.4-2.2-1.2c-0.7-1.2-0.1-2.9,1.3-3.7
			c0.5-0.3,1.1-0.4,1.6-0.4c0.2,0,0.3,0,0.5,0c0.1-0.1-0.1-0.1,0.2-0.2c0.1-0.1,0.3-0.1,0.4-0.1c0.1,0,0.2,0,0.3,0.1
			c0-0.2,0.2-0.5,0.4-0.6c0.1-0.1,0.3-0.1,0.4-0.1c0.1,0,0.2,0,0.2,0c0-0.2,0.2-0.4,0.4-0.5c0.1-0.1,0.3-0.1,0.4-0.1
			c0.1,0,0.2,0,0.2,0c0-0.2,0.2-0.4,0.4-0.5c0.1-0.1,0.3-0.1,0.4-0.1c0.1,0,0.2,0,0.3,0.1c0-0.2,0.2-0.5,0.4-0.6
			c0.1-0.1,0.3-0.1,0.4-0.1c0.1,0,0.2,0,0.2,0c0-0.2,0.2-0.4,0.4-0.5c0.1-0.1,0.3-0.1,0.4-0.1c0.1,0,0.2,0,0.3,0.1
			c0-0.2,0.2-0.4,0.4-0.6c0.1-0.1,0.3-0.1,0.4-0.1c0.1,0,0.2,0,0.3,0.1c0-0.2,0.2-0.5,0.4-0.6c0.1-0.1,0.3-0.1,0.4-0.1
			c0.1,0,0.2,0,0.2,0c0-0.2,0.2-0.4,0.4-0.5c0.1-0.1,0.3-0.1,0.4-0.1c0.1,0,0.2,0,0.3,0.1c0-0.2,0.1-0.4,0.3-0.5
			c0.1-0.1,0.2-0.1,0.3-0.1c0,0,0.1,0,0.1,0c-1.6-2.8-4.7-8.4-4.9-8.9c-0.3-0.7-0.1-0.8-0.1-0.8s0-0.2,0.9-0.7
			c0.9-0.5,2.6-0.9,2.6-0.9C28.9,121.3,28.9,121.3,28.9,121.3 M28.9,120.6L28.9,120.6L28.9,120.6l-0.2,0l0,0l-0.1,0
			c-0.1,0-1.7,0.5-2.7,1c-0.7,0.3-1,0.6-1.2,0.9c-0.2,0.2-0.3,0.7,0.1,1.4c0.2,0.3,1.7,3,4.6,8.2c-0.1,0.1-0.2,0.2-0.2,0.3
			c-0.2,0-0.4,0.1-0.6,0.2c-0.2,0.1-0.4,0.3-0.5,0.4c-0.2,0-0.4,0.1-0.6,0.2c-0.2,0.1-0.4,0.3-0.5,0.5c-0.2,0-0.5,0.1-0.7,0.2
			c-0.2,0.1-0.4,0.3-0.5,0.4c-0.2,0-0.4,0.1-0.6,0.2c-0.2,0.1-0.4,0.3-0.5,0.4c-0.2,0-0.4,0.1-0.6,0.2c-0.2,0.1-0.4,0.3-0.5,0.5
			c-0.2,0-0.5,0.1-0.7,0.2c-0.2,0.1-0.4,0.2-0.5,0.4c-0.2,0-0.4,0.1-0.6,0.2c-0.2,0.1-0.4,0.3-0.5,0.4c-0.2,0-0.4,0.1-0.6,0.2
			c-0.2,0.1-0.4,0.3-0.5,0.5c-0.2,0-0.5,0.1-0.7,0.2c0,0-0.1,0-0.1,0.1c-0.1,0-0.1,0-0.2,0c-0.7,0-1.3,0.2-1.9,0.5
			c-0.9,0.5-1.5,1.3-1.8,2.2c-0.2,0.8-0.1,1.6,0.3,2.3c0.5,1,1.6,1.5,2.8,1.5c0.7,0,1.3-0.2,1.9-0.5c0.6-0.4,1.1-0.9,1.5-1.5
			c0.1,0,0.1-0.1,0.2-0.1c0.2-0.1,0.4-0.3,0.5-0.5c0.2,0,0.5-0.1,0.7-0.2c0.2-0.1,0.4-0.3,0.5-0.4c0.2,0,0.4-0.1,0.6-0.2
			c0.2-0.1,0.4-0.3,0.5-0.4c0.2,0,0.4-0.1,0.6-0.2c0.2-0.1,0.4-0.3,0.5-0.5c0.2,0,0.5-0.1,0.7-0.2c0.2-0.1,0.4-0.3,0.5-0.4
			c0.2,0,0.4-0.1,0.6-0.2c0.2-0.1,0.4-0.3,0.5-0.4c0.2,0,0.4-0.1,0.6-0.2c0.2-0.1,0.4-0.3,0.5-0.5c0.2,0,0.5-0.1,0.7-0.2
			c0.2-0.1,0.4-0.3,0.5-0.4c0.2,0,0.4-0.1,0.6-0.2c0.2-0.1,0.4-0.3,0.5-0.4c0.1,0,0.2,0,0.3-0.1c2.1,3.6,4.4,7.7,4.6,8.1
			c0.3,0.6,0.7,0.8,1.1,0.8h0c0,0,0,0,0.1,0c0.2,0,0.5-0.1,1.3-0.5c0.9-0.6,2.2-1.8,2.2-1.8l0,0l0,0c0.2-0.2,0.2-0.4,0.2-0.6
			c-0.1-0.4-0.3-0.5-0.9-0.7c-0.2-0.1-0.3-0.2-0.6-0.3c-0.7-0.3-1.1-1.2-1.6-2.2c-0.2-0.5-0.4-0.9-0.7-1.4c-0.8-1.4-1.6-3.5-1.6-3.5
			l0,0l0,0c-0.8-1.5-0.9-1.6-1-1.7c-0.1-0.1-0.6-0.3-0.9-0.5c0.1-0.7,0.1-0.9,0.1-1c0-0.2,0-0.3-0.9-1.8l0,0l0,0
			c0,0-1.4-1.8-2.2-3.2c-0.3-0.5-0.5-0.9-0.8-1.3c-0.6-0.9-1.1-1.7-1-2.5l0.1-0.6c0.1-0.7,0.1-0.9-0.1-1.1l-0.2-0.2L28.9,120.6
			L28.9,120.6z"/>
	</g>
</g>
<g>
	<path class="st0" d="M12.6,97.9c2.7,2.3,5.7,4.2,8.8,5.9l58.6,32.5l3.4-6.3l-59-31.8c-3.1-1.8-6.3-3.2-9.7-4.2L3.9,90.6L12.6,97.9z
		"/>
	<g>
		<path d="M80.6,131.6l-71-37.9c0,0,3.5,0.3,10.5,3.3c3.4,1.4,61.1,32.9,61.1,32.9L80.6,131.6z"/>
	</g>
	<g>
		<path d="M76.8,145.4c-0.2,0-0.6-0.2-1.2-0.5c-0.9-0.5-2.1-1.7-2.2-1.8c-0.1-0.1-0.2-0.2-0.2-0.4c0-0.2,0.1-0.3,0.7-0.5l0.6-0.3
			c0.8-0.4,1.2-1.3,1.7-2.3c0.2-0.4,0.4-0.9,0.7-1.4c0.8-1.4,1.6-3.5,1.6-3.6c0.7-1.5,0.9-1.6,0.9-1.6c0.1-0.1,0.7-0.4,1-0.5
			c-0.1-0.7-0.1-1.1-0.1-1.2c0-0.1,0-0.2,0.9-1.6c0,0,1.4-1.8,2.2-3.3c0.2-0.5,0.5-0.9,0.8-1.3c0.6-0.9,1.2-1.8,1.1-2.7l-0.1-0.6
			c-0.1-0.6-0.1-0.7,0-0.9l0.1-0.1l0.2,0l0.1,0c0.2,0,1.8,0.5,2.7,1c0.7,0.4,1,0.6,1,0.8c0.1,0.2,0.2,0.5-0.1,1.1
			c-0.2,0.5-3,5.3-4.7,8.5c0,0,0,0,0.1,0c0.2,0.1,0.3,0.3,0.4,0.4c0,0,0,0,0.1,0c0.2,0,0.4,0.1,0.6,0.2c0.2,0.1,0.4,0.3,0.5,0.5
			c0,0,0,0,0,0c0.2,0,0.4,0.1,0.6,0.2c0.2,0.1,0.4,0.3,0.5,0.5c0,0,0.1,0,0.1,0c0.2,0,0.4,0.1,0.6,0.2c0.2,0.1,0.4,0.3,0.5,0.5
			c0,0,0,0,0.1,0c0.2,0,0.4,0.1,0.6,0.2c0.2,0.1,0.4,0.3,0.5,0.5c0,0,0,0,0,0c0.2,0,0.4,0.1,0.6,0.2c0.2,0.1,0.4,0.3,0.5,0.5
			c0,0,0.1,0,0.1,0c0.2,0,0.4,0.1,0.6,0.2c0.2,0.1,0.4,0.3,0.5,0.4c0,0,0,0,0,0c0.2,0,0.4,0.1,0.6,0.2c0.2,0.1,0.4,0.3,0.5,0.5
			c0,0,0,0,0,0c0.2,0,0.4,0.1,0.6,0.2c0.2,0.1,0.4,0.3,0.5,0.5c0,0,0.1,0,0.1,0c0.2,0,0.4,0.1,0.6,0.2c0.1,0,0.1,0.1,0.2,0.1
			c0.1,0,0.2,0,0.3,0c0.6,0,1.2,0.2,1.7,0.5c0.8,0.5,1.4,1.2,1.6,2c0.2,0.7,0.1,1.5-0.2,2.1c-0.5,0.9-1.4,1.4-2.5,1.4
			c-0.6,0-1.2-0.2-1.7-0.5c-0.6-0.3-1.1-0.9-1.4-1.5c-0.1,0-0.1-0.1-0.3-0.1c-0.2-0.1-0.4-0.3-0.5-0.5c0,0-0.1,0-0.1,0
			c-0.2,0-0.4-0.1-0.6-0.2c-0.2-0.1-0.4-0.3-0.5-0.5c0,0,0,0,0,0c-0.2,0-0.4-0.1-0.6-0.2c-0.2-0.1-0.4-0.3-0.5-0.4c0,0,0,0,0,0
			c-0.2,0-0.4-0.1-0.6-0.2c-0.2-0.1-0.4-0.3-0.5-0.5c0,0-0.1,0-0.1,0c-0.2,0-0.4-0.1-0.6-0.2c-0.2-0.1-0.4-0.3-0.5-0.5c0,0,0,0,0,0
			c-0.2,0-0.4-0.1-0.6-0.2c-0.2-0.1-0.4-0.3-0.5-0.5c0,0,0,0-0.1,0c-0.2,0-0.4-0.1-0.6-0.2c-0.2-0.1-0.4-0.3-0.5-0.5
			c0,0-0.1,0-0.1,0c-0.2,0-0.4-0.1-0.6-0.2c-0.2-0.1-0.4-0.3-0.5-0.5c0,0,0,0,0,0c-0.2,0-0.4-0.1-0.6-0.2c-0.2-0.1-0.4-0.3-0.5-0.5
			c0,0-0.1,0-0.1,0c-0.2,0-0.3,0-0.4-0.1c0,0,0,0-0.1,0c-3,5.3-4.6,8-4.8,8.4C77.5,145.2,77.2,145.4,76.8,145.4L76.8,145.4z"/>
		<path class="st1" d="M85.8,121.3c0,0,0.1,0,0.1,0c0,0,1.7,0.5,2.6,0.9c0.9,0.5,0.9,0.7,0.9,0.7s0.2,0.2-0.1,0.8
			c-0.3,0.5-3.4,6.1-4.9,8.9c0,0,0.1,0,0.1,0c0.1,0,0.2,0,0.3,0.1c0.2,0.1,0.3,0.3,0.3,0.5c0.1,0,0.2-0.1,0.3-0.1
			c0.1,0,0.3,0,0.4,0.1c0.2,0.1,0.4,0.3,0.4,0.5c0.1,0,0.2,0,0.2,0c0.1,0,0.3,0,0.4,0.1c0.3,0.1,0.4,0.4,0.4,0.6
			c0.1-0.1,0.2-0.1,0.3-0.1c0.1,0,0.3,0,0.4,0.1c0.2,0.1,0.4,0.4,0.4,0.6c0.1,0,0.2-0.1,0.3-0.1c0.1,0,0.3,0,0.4,0.1
			c0.2,0.1,0.4,0.3,0.4,0.5c0.1,0,0.2,0,0.2,0c0.1,0,0.3,0,0.4,0.1c0.3,0.1,0.4,0.4,0.4,0.6c0.1-0.1,0.2-0.1,0.3-0.1
			c0.1,0,0.3,0,0.4,0.1c0.2,0.1,0.4,0.3,0.4,0.5c0.1,0,0.1,0,0.2,0c0.1,0,0.3,0,0.4,0.1c0.2,0.1,0.4,0.3,0.4,0.5c0.1,0,0.2,0,0.2,0
			c0.1,0,0.3,0,0.4,0.1c0.3,0.1,0.4,0.4,0.4,0.6c0.1-0.1,0.2-0.1,0.3-0.1c0.1,0,0.3,0,0.4,0.1c0.2,0.1,0.1,0.1,0.2,0.2
			c0.2,0,0.3,0,0.5,0c0.5,0,1.1,0.1,1.6,0.4c1.4,0.8,2,2.4,1.3,3.7c-0.4,0.8-1.3,1.2-2.2,1.2c-0.5,0-1.1-0.1-1.6-0.4
			c-0.7-0.4-1.1-0.9-1.4-1.5c0,0,0,0,0,0c-0.1,0-0.1,0-0.1,0c0,0-0.1,0-0.2-0.1c-0.3-0.1-0.4-0.4-0.4-0.6c-0.1,0.1-0.2,0.1-0.3,0.1
			c-0.1,0-0.3,0-0.4-0.1c-0.2-0.1-0.4-0.3-0.4-0.5c-0.1,0-0.1,0-0.2,0c-0.1,0-0.3,0-0.4-0.1c-0.2-0.1-0.4-0.3-0.4-0.5
			c-0.1,0-0.1,0-0.2,0c-0.1,0-0.3,0-0.4-0.1c-0.3-0.1-0.4-0.4-0.4-0.6c-0.1,0.1-0.2,0.1-0.3,0.1c-0.1,0-0.3,0-0.4-0.1
			c-0.2-0.1-0.4-0.3-0.4-0.5c-0.1,0-0.1,0-0.2,0c-0.1,0-0.3,0-0.4-0.1c-0.2-0.1-0.4-0.4-0.4-0.6c-0.1,0-0.2,0.1-0.3,0.1
			c-0.1,0-0.3,0-0.4-0.1c-0.3-0.1-0.4-0.4-0.4-0.6c-0.1,0.1-0.2,0.1-0.3,0.1c-0.1,0-0.3,0-0.4-0.1c-0.2-0.1-0.4-0.3-0.4-0.5
			c-0.1,0-0.2,0-0.2,0c-0.1,0-0.3,0-0.4-0.1c-0.3-0.1-0.4-0.4-0.4-0.6c-0.1,0.1-0.2,0.1-0.3,0.1c-0.1,0-0.2,0-0.3-0.1
			c-0.1-0.1-0.2-0.2-0.3-0.3c-1.6,2.8-4.7,8.3-5,8.8c-0.3,0.5-0.5,0.5-0.6,0.5c0,0,0,0,0,0s0,0,0,0c-0.1,0-0.4-0.1-1-0.4
			c-0.9-0.5-2.1-1.7-2.1-1.7c-0.1-0.2-0.2-0.1,1.1-0.7c1.3-0.6,1.7-2.3,2.5-3.8c0.9-1.5,1.7-3.6,1.7-3.6s0.7-1.4,0.8-1.5
			c0.1-0.1,1.1-0.5,1.2-0.6c0-0.2-0.1-1.2-0.1-1.3c0-0.2,0.8-1.5,0.8-1.5s1.4-1.8,2.2-3.3c0.8-1.5,2.1-2.7,1.9-4.1
			C85.7,121.4,85.7,121.3,85.8,121.3 M85.8,120.6h-0.3l-0.2,0.2c-0.2,0.3-0.2,0.5-0.1,1.1l0.1,0.6c0.1,0.8-0.4,1.6-1,2.5
			c-0.3,0.4-0.6,0.8-0.8,1.3c-0.8,1.4-2.1,3.2-2.2,3.2l0,0l0,0c-0.9,1.4-0.9,1.6-0.9,1.8c0,0.1,0,0.3,0.1,1
			c-0.3,0.2-0.8,0.4-0.9,0.5c-0.1,0.1-0.3,0.2-1,1.7l0,0l0,0c0,0-0.8,2.1-1.6,3.5c-0.3,0.5-0.5,0.9-0.7,1.4c-0.5,1-0.8,1.8-1.6,2.2
			c-0.2,0.1-0.4,0.2-0.6,0.3c-0.6,0.3-0.8,0.4-0.9,0.7c0,0.2,0,0.4,0.2,0.6l0,0l0,0c0.1,0.1,1.3,1.2,2.2,1.8
			c0.8,0.5,1.1,0.5,1.3,0.5H77l0,0c0.4,0,0.7-0.3,1-0.8c0.2-0.3,1.7-3,4.6-8.1c0.1,0,0.2,0.1,0.3,0.1c0.1,0.2,0.3,0.3,0.5,0.4
			c0.2,0.1,0.4,0.2,0.6,0.2c0.1,0.2,0.3,0.3,0.5,0.4c0.2,0.1,0.4,0.2,0.7,0.2c0.1,0.2,0.3,0.4,0.5,0.5c0.2,0.1,0.4,0.2,0.6,0.2
			c0.1,0.2,0.3,0.3,0.5,0.4c0.2,0.1,0.4,0.2,0.6,0.2c0.1,0.2,0.3,0.3,0.5,0.4c0.2,0.1,0.4,0.2,0.7,0.2c0.1,0.2,0.3,0.4,0.5,0.5
			c0.2,0.1,0.4,0.2,0.6,0.2c0.1,0.2,0.3,0.3,0.5,0.4c0.2,0.1,0.4,0.2,0.6,0.2c0.1,0.2,0.3,0.3,0.5,0.4c0.2,0.1,0.4,0.2,0.7,0.2
			c0.1,0.2,0.3,0.4,0.5,0.5c0.1,0,0.1,0.1,0.2,0.1c0.3,0.6,0.9,1.1,1.5,1.5c0.6,0.3,1.2,0.5,1.9,0.5c1.2,0,2.2-0.6,2.8-1.5
			c0.4-0.7,0.5-1.5,0.3-2.3c-0.3-0.9-0.9-1.7-1.8-2.2c-0.6-0.3-1.2-0.5-1.9-0.5c-0.1,0-0.1,0-0.2,0c0,0-0.1-0.1-0.1-0.1
			c-0.2-0.1-0.4-0.2-0.7-0.2c-0.1-0.2-0.3-0.4-0.5-0.5c-0.2-0.1-0.4-0.2-0.6-0.2c-0.1-0.2-0.3-0.3-0.5-0.4c-0.2-0.1-0.4-0.2-0.6-0.2
			c-0.1-0.2-0.3-0.3-0.5-0.4c-0.2-0.1-0.4-0.2-0.7-0.2c-0.1-0.2-0.3-0.4-0.5-0.5c-0.2-0.1-0.4-0.2-0.6-0.2c-0.1-0.2-0.3-0.3-0.5-0.4
			c-0.2-0.1-0.4-0.2-0.6-0.2c-0.1-0.2-0.3-0.3-0.5-0.4c-0.2-0.1-0.4-0.2-0.7-0.2c-0.1-0.2-0.3-0.4-0.5-0.5c-0.2-0.1-0.4-0.2-0.6-0.2
			c-0.1-0.2-0.3-0.3-0.5-0.4c-0.2-0.1-0.4-0.2-0.6-0.2c-0.1-0.1-0.1-0.2-0.2-0.3c2-3.7,4.4-7.8,4.6-8.2c0.4-0.7,0.3-1.2,0.1-1.4
			c-0.1-0.3-0.5-0.6-1.2-0.9c-1-0.5-2.6-0.9-2.7-1l-0.1,0l-0.1,0l-0.1,0L85.8,120.6L85.8,120.6z"/>
	</g>
</g>
<polygon class="st2" points="37,4.7 13.7,19 14.5,81.1 26.9,98 54.7,107.9 68.6,105 87.8,97.9 100.3,80.2 100.3,19 76.8,4.4 
	56.5,8.7 "/>
<path class="st3" d="M57.5,103.2L29.8,92.9l-9.9-12.7V22L38.3,9.7L57.4,14l19.1-4.5l0.1,0.1L95.3,22v58.2l-0.1,0.1L83.4,92.8l-0.1,0
	L57.5,103.2z M30.3,92.2l27.2,10.1l25.5-10.1l11.6-12.2V22.4L76.4,10.4l-19,4.4l-0.1,0l-18.9-4.3L20.6,22.4v57.5L30.3,92.2z"/>
<path class="st3" d="M57.4,95l-23.2-9.3V20.5l23.1,5l23.2-4.8v64.8L57.4,95z M36.6,84l20.8,8.4L78.2,84V23.6l-20.8,4.3l-20.7-4.6V84
	z"/>
<path class="st3" d="M79.8,70.5V57.9l15.6-20.3v12.6L79.8,70.5z M80.6,58.2v9.9l14-18.2V40L80.6,58.2z"/>
<path class="st4" d="M57.4,110.6L25.9,99.4L13.1,83V18.2L38.2,2.1l19.2,5l19.1-4.9l25.3,16V83L88.8,99.2L57.4,110.6z M27.9,96.7
	l29.6,10.5l29.4-10.7l11.9-14.6V19.9L76.6,5.4l-19.1,4.9l-19.1-5l-22,14.5v62.1L27.9,96.7z"/>
<path class="st3" d="M34.9,70.5L19.8,50.2V37.6l15.1,20.3V70.5z M20.6,49.9l13.5,18.2v-9.9L20.6,40V49.9z"/>
<polygon points="71.1,77.8 65.3,82.9 49.6,82.9 43.8,77.8 43.8,69.9 52.9,69.9 52.9,73.9 62,73.9 62,62.9 49.6,62.9 43.8,57.7 
	43.8,38.9 49.6,33.7 65.3,33.7 71.1,38.9 71.1,46.5 62,46.5 62,42.8 52.9,42.8 52.9,53.8 65.3,53.8 71.1,58.9 "/>
<g>
	<path d="M127.5,112.5c0-0.1,0-0.2,0.1-0.2c0-0.1,0.1-0.1,0.2-0.1h1.2c0.2,0,0.3,0.1,0.3,0.3v0.2c0,0.4,0.1,0.7,0.2,0.9
		c0.1,0.3,0.3,0.5,0.6,0.7c0.2,0.2,0.5,0.3,0.8,0.5c0.3,0.1,0.7,0.2,1,0.2c0.3,0,0.6-0.1,0.9-0.2c0.3-0.1,0.5-0.2,0.8-0.4
		c0.2-0.2,0.4-0.4,0.5-0.6c0.1-0.2,0.2-0.5,0.2-0.8c0-0.3-0.1-0.6-0.2-0.8c-0.1-0.3-0.3-0.5-0.6-0.7c-0.3-0.2-0.6-0.5-1-0.7
		c-0.4-0.2-0.9-0.5-1.4-0.8c-0.5-0.3-1-0.5-1.4-0.8c-0.4-0.3-0.8-0.5-1.1-0.9c-0.3-0.3-0.6-0.7-0.7-1.1c-0.2-0.4-0.3-0.8-0.3-1.4
		c0-0.7,0.1-1.2,0.4-1.7c0.3-0.5,0.6-0.9,1-1.2c0.4-0.3,0.8-0.5,1.3-0.7c0.5-0.2,1-0.2,1.4-0.2c0.7,0,1.3,0.1,1.8,0.3
		c0.5,0.2,1,0.5,1.3,0.9c0.4,0.4,0.6,0.8,0.8,1.3c0.2,0.5,0.3,0.9,0.3,1.4v0.2c0,0.1,0,0.2-0.1,0.3c-0.1,0.1-0.1,0.1-0.2,0.1h-1.2
		c-0.1,0-0.2,0-0.2-0.1c-0.1,0-0.1-0.1-0.1-0.2V106c0-0.3-0.1-0.6-0.2-0.9c-0.1-0.3-0.3-0.5-0.5-0.7c-0.2-0.2-0.5-0.4-0.7-0.5
		c-0.3-0.1-0.6-0.2-0.9-0.2c-0.3,0-0.5,0-0.8,0.1c-0.3,0.1-0.5,0.2-0.8,0.4c-0.2,0.2-0.4,0.4-0.6,0.6c-0.1,0.3-0.2,0.6-0.2,0.9
		c0,0.3,0.1,0.6,0.2,0.8c0.1,0.2,0.3,0.5,0.6,0.7c0.2,0.2,0.5,0.4,0.8,0.6c0.3,0.2,0.6,0.3,0.9,0.5c0.7,0.4,1.3,0.7,1.9,1
		c0.5,0.3,1,0.7,1.3,1c0.3,0.4,0.6,0.7,0.7,1.1c0.2,0.4,0.2,0.9,0.2,1.4c0,0.5-0.1,1-0.3,1.5c-0.2,0.5-0.5,0.9-0.9,1.2
		c-0.4,0.3-0.8,0.6-1.4,0.8c-0.5,0.2-1.1,0.3-1.7,0.3c-0.7,0-1.3-0.1-1.8-0.3c-0.5-0.2-1-0.5-1.4-0.9c-0.4-0.4-0.7-0.8-0.9-1.3
		C127.6,113.7,127.5,113.2,127.5,112.5L127.5,112.5z"/>
	<path d="M142.1,112.1c0,0.3,0.1,0.7,0.2,1c0.1,0.3,0.3,0.6,0.5,0.9c0.2,0.3,0.5,0.5,0.8,0.7c0.3,0.2,0.7,0.2,1.1,0.2
		c0.4,0,0.8-0.1,1.1-0.3c0.3-0.2,0.6-0.4,0.8-0.7c0.2-0.3,0.4-0.6,0.5-0.9c0.1-0.3,0.2-0.7,0.2-1v-9.4c0-0.1,0-0.2,0.1-0.3
		c0.1-0.1,0.1-0.1,0.2-0.1h1.2c0.1,0,0.2,0,0.2,0.1c0.1,0.1,0.1,0.2,0.1,0.3v9.3c0,0.6-0.1,1.3-0.3,1.8c-0.2,0.6-0.5,1.1-0.9,1.5
		c-0.4,0.4-0.8,0.8-1.4,1c-0.6,0.3-1.2,0.4-1.9,0.4c-0.7,0-1.3-0.1-1.9-0.4c-0.6-0.3-1-0.6-1.4-1c-0.4-0.4-0.7-0.9-0.9-1.5
		c-0.2-0.6-0.3-1.2-0.3-1.8v-9.4c0-0.1,0-0.2,0.1-0.3c0.1-0.1,0.1-0.1,0.2-0.1h1.3c0.1,0,0.2,0,0.2,0.1c0,0.1,0.1,0.2,0.1,0.3V112.1
		z"/>
	<path d="M159.8,112.5c0-0.1,0-0.2,0.1-0.2c0-0.1,0.1-0.1,0.2-0.1h1.2c0.2,0,0.3,0.1,0.3,0.3v0.2c0,0.4,0.1,0.7,0.2,0.9
		c0.1,0.3,0.3,0.5,0.6,0.7c0.2,0.2,0.5,0.3,0.8,0.5c0.3,0.1,0.7,0.2,1,0.2c0.3,0,0.6-0.1,0.9-0.2c0.3-0.1,0.5-0.2,0.8-0.4
		c0.2-0.2,0.4-0.4,0.5-0.6c0.1-0.2,0.2-0.5,0.2-0.8c0-0.3-0.1-0.6-0.2-0.8c-0.1-0.3-0.3-0.5-0.6-0.7c-0.3-0.2-0.6-0.5-1-0.7
		c-0.4-0.2-0.9-0.5-1.4-0.8c-0.5-0.3-1-0.5-1.4-0.8c-0.4-0.3-0.8-0.5-1.1-0.9c-0.3-0.3-0.6-0.7-0.7-1.1c-0.2-0.4-0.3-0.8-0.3-1.4
		c0-0.7,0.1-1.2,0.4-1.7c0.3-0.5,0.6-0.9,1-1.2c0.4-0.3,0.8-0.5,1.3-0.7c0.5-0.2,1-0.2,1.4-0.2c0.7,0,1.3,0.1,1.8,0.3
		c0.5,0.2,1,0.5,1.3,0.9c0.4,0.4,0.6,0.8,0.8,1.3c0.2,0.5,0.3,0.9,0.3,1.4v0.2c0,0.1,0,0.2-0.1,0.3c-0.1,0.1-0.1,0.1-0.2,0.1h-1.2
		c-0.1,0-0.2,0-0.2-0.1c-0.1,0-0.1-0.1-0.1-0.2V106c0-0.3-0.1-0.6-0.2-0.9c-0.1-0.3-0.3-0.5-0.5-0.7c-0.2-0.2-0.5-0.4-0.7-0.5
		c-0.3-0.1-0.6-0.2-0.9-0.2c-0.3,0-0.5,0-0.8,0.1c-0.3,0.1-0.5,0.2-0.8,0.4c-0.2,0.2-0.4,0.4-0.6,0.6c-0.1,0.3-0.2,0.6-0.2,0.9
		c0,0.3,0.1,0.6,0.2,0.8c0.1,0.2,0.3,0.5,0.6,0.7c0.2,0.2,0.5,0.4,0.8,0.6c0.3,0.2,0.6,0.3,0.9,0.5c0.7,0.4,1.3,0.7,1.9,1
		c0.5,0.3,1,0.7,1.3,1c0.3,0.4,0.6,0.7,0.7,1.1c0.2,0.4,0.2,0.9,0.2,1.4c0,0.5-0.1,1-0.3,1.5c-0.2,0.5-0.5,0.9-0.9,1.2
		c-0.4,0.3-0.8,0.6-1.4,0.8c-0.5,0.2-1.1,0.3-1.7,0.3c-0.7,0-1.3-0.1-1.8-0.3c-0.5-0.2-1-0.5-1.4-0.9c-0.4-0.4-0.7-0.8-0.9-1.3
		C159.9,113.7,159.8,113.2,159.8,112.5L159.8,112.5z"/>
	<path d="M172.8,102.6c0-0.2,0.1-0.4,0.3-0.4h6.6c0.1,0,0.2,0,0.2,0.1c0.1,0.1,0.1,0.1,0.1,0.2v1.1c0,0.1,0,0.2-0.1,0.2
		c-0.1,0.1-0.1,0.1-0.2,0.1h-5.1v4.3h4c0.1,0,0.2,0,0.2,0.1c0.1,0,0.1,0.1,0.1,0.3v1.1c0,0.1,0,0.2-0.1,0.2
		c-0.1,0.1-0.1,0.1-0.2,0.1h-4v4.6h5.1c0.1,0,0.2,0,0.2,0.1c0.1,0,0.1,0.1,0.1,0.2v1.1c0,0.1,0,0.2-0.1,0.2
		c-0.1,0.1-0.1,0.1-0.2,0.1h-6.7c-0.2,0-0.3-0.1-0.3-0.4V102.6z"/>
	<path d="M183.9,104.9c0.2-0.6,0.5-1.1,0.9-1.5c0.4-0.4,0.8-0.8,1.4-1c0.6-0.2,1.2-0.4,1.9-0.4c0.7,0,1.4,0.1,1.9,0.4
		c0.5,0.3,1,0.6,1.4,1c0.4,0.4,0.6,0.8,0.8,1.3c0.2,0.5,0.3,0.9,0.3,1.3v0.5c0,0.1,0,0.2-0.1,0.2c0,0.1-0.1,0.1-0.2,0.1h-1.3
		c-0.1,0-0.2,0-0.2-0.1c-0.1,0-0.1-0.1-0.1-0.2v-0.2c0-0.3-0.1-0.6-0.2-0.9c-0.1-0.3-0.3-0.6-0.5-0.8c-0.2-0.2-0.5-0.4-0.8-0.6
		c-0.3-0.1-0.7-0.2-1.1-0.2c-0.4,0-0.8,0.1-1.1,0.2c-0.3,0.1-0.6,0.4-0.8,0.6c-0.2,0.3-0.4,0.6-0.5,0.9c-0.1,0.4-0.2,0.7-0.2,1.1
		v5.3c0,0.4,0.1,0.8,0.2,1.2c0.1,0.4,0.3,0.7,0.5,0.9c0.2,0.3,0.5,0.5,0.8,0.6c0.3,0.2,0.7,0.2,1.1,0.2c0.4,0,0.7-0.1,1-0.2
		c0.3-0.1,0.6-0.3,0.8-0.5c0.2-0.2,0.4-0.5,0.5-0.8c0.1-0.3,0.2-0.6,0.2-0.9v-1.4h-1.6c-0.2,0-0.3-0.1-0.3-0.3v-1
		c0-0.2,0.1-0.3,0.3-0.3h3.1c0.2,0,0.3,0.1,0.3,0.4v2.6c0,0.6-0.1,1.2-0.3,1.7c-0.2,0.5-0.5,1-0.9,1.3c-0.4,0.4-0.9,0.7-1.4,0.9
		c-0.5,0.2-1.1,0.3-1.8,0.3c-0.7,0-1.3-0.1-1.8-0.4c-0.5-0.2-1-0.6-1.4-1c-0.4-0.4-0.7-0.9-0.9-1.5c-0.2-0.6-0.3-1.2-0.3-1.9v-5.1
		C183.6,106.1,183.7,105.5,183.9,104.9z"/>
	<path d="M198.8,112.1c0,0.3,0.1,0.7,0.2,1c0.1,0.3,0.3,0.6,0.5,0.9c0.2,0.3,0.5,0.5,0.8,0.7c0.3,0.2,0.7,0.2,1.1,0.2
		c0.4,0,0.8-0.1,1.1-0.3c0.3-0.2,0.6-0.4,0.8-0.7c0.2-0.3,0.4-0.6,0.5-0.9c0.1-0.3,0.2-0.7,0.2-1v-9.4c0-0.1,0-0.2,0.1-0.3
		c0.1-0.1,0.1-0.1,0.2-0.1h1.2c0.1,0,0.2,0,0.2,0.1c0.1,0.1,0.1,0.2,0.1,0.3v9.3c0,0.6-0.1,1.3-0.3,1.8c-0.2,0.6-0.5,1.1-0.9,1.5
		c-0.4,0.4-0.8,0.8-1.4,1c-0.6,0.3-1.2,0.4-1.9,0.4c-0.7,0-1.3-0.1-1.9-0.4c-0.6-0.3-1-0.6-1.4-1c-0.4-0.4-0.7-0.9-0.9-1.5
		c-0.2-0.6-0.3-1.2-0.3-1.8v-9.4c0-0.1,0-0.2,0.1-0.3c0.1-0.1,0.1-0.1,0.2-0.1h1.3c0.1,0,0.2,0,0.2,0.1c0,0.1,0.1,0.2,0.1,0.3V112.1
		z"/>
	<path d="M210.9,102.6c0-0.2,0.1-0.4,0.3-0.4h4.3c0.6,0,1.1,0.1,1.5,0.3c0.5,0.2,0.9,0.5,1.2,0.8c0.3,0.3,0.6,0.7,0.8,1.2
		c0.2,0.5,0.3,1,0.3,1.5v1.2c0,0.4,0,0.7-0.1,1.1c-0.1,0.3-0.2,0.6-0.4,0.9c-0.2,0.3-0.4,0.5-0.6,0.8c-0.2,0.2-0.5,0.4-0.7,0.6
		l0.2,0.3l1.7,5.1c0,0.1,0,0.2,0,0.3c0,0.1-0.1,0.1-0.2,0.1h-1.4c-0.1,0-0.1,0-0.2-0.1c-0.1,0-0.1-0.1-0.1-0.2l-1.5-4.9
		c-0.1,0-0.1,0-0.2,0c-0.1,0-0.1,0-0.2,0h-2.7v4.8c0,0.2-0.1,0.4-0.3,0.4h-1.2c-0.2,0-0.3-0.1-0.3-0.4V102.6z M212.8,104v5.5h2.6
		c0.3,0,0.6-0.1,0.9-0.2c0.3-0.1,0.5-0.3,0.6-0.5c0.2-0.2,0.3-0.4,0.4-0.7c0.1-0.3,0.1-0.5,0.1-0.8v-1.3c0-0.3,0-0.6-0.1-0.8
		c-0.1-0.3-0.2-0.5-0.4-0.7c-0.2-0.2-0.4-0.3-0.7-0.5c-0.3-0.1-0.5-0.2-0.8-0.2H212.8z"/>
	<path d="M224,102.6c0-0.2,0.1-0.4,0.3-0.4h1.2c0.2,0,0.3,0.1,0.3,0.4v13.4c0,0.2-0.1,0.4-0.3,0.4h-1.2c-0.2,0-0.3-0.1-0.3-0.4
		V102.6z"/>
	<path d="M235.4,102.3c0.7,0,1.3,0.1,1.8,0.3c0.6,0.2,1.1,0.5,1.5,0.9c0.4,0.4,0.7,0.9,1,1.4c0.2,0.6,0.4,1.2,0.4,1.8v5
		c0,0.7-0.1,1.3-0.4,1.8c-0.2,0.6-0.6,1-1,1.4c-0.4,0.4-0.9,0.7-1.5,0.9c-0.6,0.2-1.2,0.3-1.8,0.3h-3.8c-0.2,0-0.3-0.1-0.3-0.4
		v-13.4c0-0.2,0.1-0.4,0.3-0.4H235.4L235.4,102.3z M235.3,114.7c0.4,0,0.8-0.1,1.1-0.2c0.3-0.1,0.6-0.4,0.9-0.6
		c0.3-0.3,0.5-0.6,0.6-0.9c0.1-0.3,0.2-0.7,0.2-1.1v-5c0-0.4-0.1-0.8-0.2-1.1c-0.1-0.3-0.3-0.6-0.6-0.9c-0.3-0.2-0.5-0.4-0.9-0.6
		c-0.3-0.1-0.7-0.2-1.1-0.2H233v10.6H235.3z"/>
	<path d="M252.8,116c0,0.1,0,0.2,0,0.3c-0.1,0.1-0.1,0.1-0.2,0.1h-1.3c-0.1,0-0.1,0-0.2-0.1c-0.1,0-0.1-0.1-0.2-0.2l-0.7-2.6h-4.4
		l-0.7,2.6c0,0.1-0.1,0.2-0.2,0.2c-0.1,0-0.1,0.1-0.2,0.1h-1.3c-0.1,0-0.2,0-0.2-0.1c0-0.1-0.1-0.2,0-0.3l3.9-13.5
		c0-0.1,0.1-0.2,0.1-0.2c0.1,0,0.1-0.1,0.2-0.1h1.1c0.1,0,0.2,0,0.2,0.1c0.1,0,0.1,0.1,0.2,0.2L252.8,116z M246.2,111.9h3.5
		l-1.6-6.2l-0.2-1.1l-0.2,1.1L246.2,111.9z"/>
	<path d="M261,102.3c0.7,0,1.3,0.1,1.8,0.3c0.6,0.2,1.1,0.5,1.5,0.9c0.4,0.4,0.7,0.9,1,1.4c0.2,0.6,0.4,1.2,0.4,1.8v5
		c0,0.7-0.1,1.3-0.4,1.8c-0.2,0.6-0.6,1-1,1.4c-0.4,0.4-0.9,0.7-1.5,0.9c-0.6,0.2-1.2,0.3-1.8,0.3h-3.8c-0.2,0-0.3-0.1-0.3-0.4
		v-13.4c0-0.2,0.1-0.4,0.3-0.4H261L261,102.3z M260.9,114.7c0.4,0,0.8-0.1,1.1-0.2c0.3-0.1,0.6-0.4,0.9-0.6c0.3-0.3,0.5-0.6,0.6-0.9
		c0.1-0.3,0.2-0.7,0.2-1.1v-5c0-0.4-0.1-0.8-0.2-1.1c-0.1-0.3-0.3-0.6-0.6-0.9c-0.3-0.2-0.5-0.4-0.9-0.6c-0.3-0.1-0.7-0.2-1.1-0.2
		h-2.3v10.6H260.9z"/>
	<path d="M276.6,102.6c0-0.2,0.1-0.4,0.3-0.4h6.6c0.1,0,0.2,0,0.2,0.1c0.1,0.1,0.1,0.1,0.1,0.2v1.1c0,0.1,0,0.2-0.1,0.2
		c-0.1,0.1-0.1,0.1-0.2,0.1h-5.1v4.3h4c0.1,0,0.2,0,0.2,0.1c0.1,0,0.1,0.1,0.1,0.3v1.1c0,0.1,0,0.2-0.1,0.2
		c-0.1,0.1-0.1,0.1-0.2,0.1h-4v4.6h5.1c0.1,0,0.2,0,0.2,0.1c0.1,0,0.1,0.1,0.1,0.2v1.1c0,0.1,0,0.2-0.1,0.2
		c-0.1,0.1-0.1,0.1-0.2,0.1H277c-0.2,0-0.3-0.1-0.3-0.4V102.6z"/>
	<path d="M287.5,112.5c0-0.1,0-0.2,0.1-0.2c0-0.1,0.1-0.1,0.2-0.1h1.2c0.2,0,0.3,0.1,0.3,0.3v0.2c0,0.4,0.1,0.7,0.2,0.9
		c0.1,0.3,0.3,0.5,0.6,0.7c0.2,0.2,0.5,0.3,0.8,0.5c0.3,0.1,0.7,0.2,1,0.2c0.3,0,0.6-0.1,0.9-0.2c0.3-0.1,0.5-0.2,0.8-0.4
		c0.2-0.2,0.4-0.4,0.5-0.6c0.1-0.2,0.2-0.5,0.2-0.8c0-0.3-0.1-0.6-0.2-0.8c-0.1-0.3-0.3-0.5-0.6-0.7c-0.3-0.2-0.6-0.5-1-0.7
		c-0.4-0.2-0.9-0.5-1.4-0.8c-0.5-0.3-1-0.5-1.4-0.8c-0.4-0.3-0.8-0.5-1.1-0.9c-0.3-0.3-0.6-0.7-0.7-1.1c-0.2-0.4-0.3-0.8-0.3-1.4
		c0-0.7,0.1-1.2,0.4-1.7c0.3-0.5,0.6-0.9,1-1.2c0.4-0.3,0.8-0.5,1.3-0.7c0.5-0.2,1-0.2,1.4-0.2c0.7,0,1.3,0.1,1.8,0.3
		c0.5,0.2,1,0.5,1.3,0.9c0.4,0.4,0.6,0.8,0.8,1.3c0.2,0.5,0.3,0.9,0.3,1.4v0.2c0,0.1,0,0.2-0.1,0.3c-0.1,0.1-0.1,0.1-0.2,0.1h-1.2
		c-0.1,0-0.2,0-0.2-0.1c-0.1,0-0.1-0.1-0.1-0.2V106c0-0.3-0.1-0.6-0.2-0.9c-0.1-0.3-0.3-0.5-0.5-0.7c-0.2-0.2-0.5-0.4-0.7-0.5
		c-0.3-0.1-0.6-0.2-0.9-0.2c-0.3,0-0.5,0-0.8,0.1c-0.3,0.1-0.5,0.2-0.8,0.4c-0.2,0.2-0.4,0.4-0.6,0.6c-0.1,0.3-0.2,0.6-0.2,0.9
		c0,0.3,0.1,0.6,0.2,0.8c0.1,0.2,0.3,0.5,0.6,0.7c0.2,0.2,0.5,0.4,0.8,0.6c0.3,0.2,0.6,0.3,0.9,0.5c0.7,0.4,1.3,0.7,1.9,1
		c0.5,0.3,1,0.7,1.3,1c0.3,0.4,0.6,0.7,0.7,1.1c0.2,0.4,0.2,0.9,0.2,1.4c0,0.5-0.1,1-0.3,1.5c-0.2,0.5-0.5,0.9-0.9,1.2
		c-0.4,0.3-0.8,0.6-1.4,0.8c-0.5,0.2-1.1,0.3-1.7,0.3c-0.7,0-1.3-0.1-1.8-0.3c-0.5-0.2-1-0.5-1.4-0.9c-0.4-0.4-0.7-0.8-0.9-1.3
		C287.6,113.7,287.5,113.2,287.5,112.5L287.5,112.5z"/>
	<path d="M306.8,102.6c0-0.2,0.1-0.4,0.3-0.4h1.1c0.1,0,0.1,0,0.2,0.1c0.1,0,0.1,0.1,0.2,0.2l5,9.7l0.3,0.9l-0.1-1l-0.1-9.7
		c0-0.1,0-0.2,0.1-0.3c0.1-0.1,0.1-0.1,0.3-0.1h1.1c0.1,0,0.2,0,0.2,0.1c0.1,0.1,0.1,0.1,0.1,0.3v13.4c0,0.2-0.1,0.4-0.4,0.4h-1.1
		c-0.1,0-0.2,0-0.2-0.1c-0.1,0-0.1-0.1-0.2-0.2l-5-9.6l-0.4-1l0.1,1l0.1,9.5c0,0.2-0.1,0.4-0.3,0.4h-1.1c-0.2,0-0.3-0.1-0.3-0.4
		V102.6z"/>
	<path d="M322.6,112.1c0,0.3,0.1,0.7,0.2,1c0.1,0.3,0.3,0.6,0.5,0.9c0.2,0.3,0.5,0.5,0.8,0.7c0.3,0.2,0.7,0.2,1.1,0.2
		c0.4,0,0.8-0.1,1.1-0.3c0.3-0.2,0.6-0.4,0.8-0.7c0.2-0.3,0.4-0.6,0.5-0.9c0.1-0.3,0.2-0.7,0.2-1v-9.4c0-0.1,0-0.2,0.1-0.3
		c0.1-0.1,0.1-0.1,0.2-0.1h1.2c0.1,0,0.2,0,0.2,0.1c0.1,0.1,0.1,0.2,0.1,0.3v9.3c0,0.6-0.1,1.3-0.3,1.8c-0.2,0.6-0.5,1.1-0.9,1.5
		c-0.4,0.4-0.8,0.8-1.4,1c-0.6,0.3-1.2,0.4-1.9,0.4c-0.7,0-1.3-0.1-1.9-0.4c-0.6-0.3-1-0.6-1.4-1c-0.4-0.4-0.7-0.9-0.9-1.5
		c-0.2-0.6-0.3-1.2-0.3-1.8v-9.4c0-0.1,0-0.2,0.1-0.3c0.1-0.1,0.1-0.1,0.2-0.1h1.3c0.1,0,0.2,0,0.2,0.1c0,0.1,0.1,0.2,0.1,0.3V112.1
		z"/>
	<path d="M334.8,102.6c0-0.2,0.1-0.4,0.3-0.4h6.6c0.1,0,0.2,0,0.2,0.1c0.1,0.1,0.1,0.1,0.1,0.2v1.1c0,0.1,0,0.2-0.1,0.2
		c-0.1,0.1-0.1,0.1-0.2,0.1h-5.1v4.3h4c0.1,0,0.2,0,0.2,0.1c0.1,0,0.1,0.1,0.1,0.3v1.1c0,0.1,0,0.2-0.1,0.2
		c-0.1,0.1-0.1,0.1-0.2,0.1h-4v4.6h5.1c0.1,0,0.2,0,0.2,0.1c0.1,0,0.1,0.1,0.1,0.2v1.1c0,0.1,0,0.2-0.1,0.2
		c-0.1,0.1-0.1,0.1-0.2,0.1h-6.7c-0.2,0-0.3-0.1-0.3-0.4V102.6z"/>
	<path d="M345.6,112.5c0-0.1,0-0.2,0.1-0.2c0-0.1,0.1-0.1,0.2-0.1h1.2c0.2,0,0.3,0.1,0.3,0.3v0.2c0,0.4,0.1,0.7,0.2,0.9
		c0.1,0.3,0.3,0.5,0.6,0.7c0.2,0.2,0.5,0.3,0.8,0.5c0.3,0.1,0.7,0.2,1,0.2c0.3,0,0.6-0.1,0.9-0.2c0.3-0.1,0.5-0.2,0.8-0.4
		c0.2-0.2,0.4-0.4,0.5-0.6c0.1-0.2,0.2-0.5,0.2-0.8c0-0.3-0.1-0.6-0.2-0.8c-0.1-0.3-0.3-0.5-0.6-0.7c-0.3-0.2-0.6-0.5-1-0.7
		c-0.4-0.2-0.9-0.5-1.4-0.8c-0.5-0.3-1-0.5-1.4-0.8c-0.4-0.3-0.8-0.5-1.1-0.9c-0.3-0.3-0.6-0.7-0.7-1.1c-0.2-0.4-0.3-0.8-0.3-1.4
		c0-0.7,0.1-1.2,0.4-1.7c0.3-0.5,0.6-0.9,1-1.2c0.4-0.3,0.8-0.5,1.3-0.7c0.5-0.2,1-0.2,1.4-0.2c0.7,0,1.3,0.1,1.8,0.3
		c0.5,0.2,1,0.5,1.3,0.9c0.4,0.4,0.6,0.8,0.8,1.3c0.2,0.5,0.3,0.9,0.3,1.4v0.2c0,0.1,0,0.2-0.1,0.3c-0.1,0.1-0.1,0.1-0.2,0.1h-1.2
		c-0.1,0-0.2,0-0.2-0.1c-0.1,0-0.1-0.1-0.1-0.2V106c0-0.3-0.1-0.6-0.2-0.9c-0.1-0.3-0.3-0.5-0.5-0.7c-0.2-0.2-0.5-0.4-0.7-0.5
		c-0.3-0.1-0.6-0.2-0.9-0.2c-0.3,0-0.5,0-0.8,0.1c-0.3,0.1-0.5,0.2-0.8,0.4c-0.2,0.2-0.4,0.4-0.6,0.6c-0.1,0.3-0.2,0.6-0.2,0.9
		c0,0.3,0.1,0.6,0.2,0.8c0.1,0.2,0.3,0.5,0.6,0.7c0.2,0.2,0.5,0.4,0.8,0.6c0.3,0.2,0.6,0.3,0.9,0.5c0.7,0.4,1.3,0.7,1.9,1
		c0.5,0.3,1,0.7,1.3,1c0.3,0.4,0.6,0.7,0.7,1.1c0.2,0.4,0.2,0.9,0.2,1.4c0,0.5-0.1,1-0.3,1.5c-0.2,0.5-0.5,0.9-0.9,1.2
		c-0.4,0.3-0.8,0.6-1.4,0.8c-0.5,0.2-1.1,0.3-1.7,0.3c-0.7,0-1.3-0.1-1.8-0.3c-0.5-0.2-1-0.5-1.4-0.9c-0.4-0.4-0.7-0.8-0.9-1.3
		C345.7,113.7,345.6,113.2,345.6,112.5L345.6,112.5z"/>
	<path d="M357.1,102.6c0-0.1,0-0.2,0.1-0.3c0.1-0.1,0.1-0.1,0.2-0.1h8.1c0.1,0,0.2,0,0.2,0.1c0.1,0.1,0.1,0.1,0.1,0.3v1.1
		c0,0.1,0,0.2-0.1,0.2c-0.1,0-0.1,0.1-0.2,0.1h-3.1v12.1c0,0.1,0,0.2-0.1,0.3c-0.1,0.1-0.1,0.1-0.2,0.1h-1.3c-0.1,0-0.2,0-0.2-0.1
		c-0.1-0.1-0.1-0.1-0.1-0.3V104h-3.1c-0.1,0-0.2,0-0.2-0.1c-0.1,0-0.1-0.1-0.1-0.2V102.6z"/>
	<path d="M369.7,102.6c0-0.2,0.1-0.4,0.3-0.4h4.3c0.6,0,1.1,0.1,1.5,0.3c0.5,0.2,0.9,0.5,1.2,0.8c0.3,0.3,0.6,0.7,0.8,1.2
		c0.2,0.5,0.3,1,0.3,1.5v1.2c0,0.4,0,0.7-0.1,1.1c-0.1,0.3-0.2,0.6-0.4,0.9c-0.2,0.3-0.4,0.5-0.6,0.8c-0.2,0.2-0.5,0.4-0.7,0.6
		l0.2,0.3l1.7,5.1c0,0.1,0,0.2,0,0.3c0,0.1-0.1,0.1-0.2,0.1h-1.4c-0.1,0-0.1,0-0.2-0.1c-0.1,0-0.1-0.1-0.1-0.2l-1.5-4.9
		c-0.1,0-0.1,0-0.2,0c-0.1,0-0.1,0-0.2,0h-2.7v4.8c0,0.2-0.1,0.4-0.3,0.4h-1.2c-0.2,0-0.3-0.1-0.3-0.4V102.6z M371.6,104v5.5h2.6
		c0.3,0,0.6-0.1,0.9-0.2c0.3-0.1,0.5-0.3,0.6-0.5c0.2-0.2,0.3-0.4,0.4-0.7c0.1-0.3,0.1-0.5,0.1-0.8v-1.3c0-0.3,0-0.6-0.1-0.8
		c-0.1-0.3-0.2-0.5-0.4-0.7c-0.2-0.2-0.4-0.3-0.7-0.5c-0.3-0.1-0.5-0.2-0.8-0.2H371.6z"/>
	<path d="M382.2,106.8c0-0.7,0.1-1.3,0.3-1.9c0.2-0.6,0.5-1.1,0.8-1.5c0.4-0.4,0.8-0.8,1.4-1c0.6-0.3,1.2-0.4,1.9-0.4
		c0.7,0,1.4,0.1,1.9,0.4c0.6,0.3,1,0.6,1.4,1c0.4,0.4,0.7,0.9,0.9,1.5c0.2,0.6,0.3,1.2,0.3,1.9v5c0,0.7-0.1,1.3-0.3,1.9
		c-0.2,0.6-0.5,1.1-0.9,1.5c-0.4,0.4-0.8,0.8-1.4,1s-1.2,0.4-1.9,0.4c-0.7,0-1.4-0.1-1.9-0.4c-0.6-0.3-1-0.6-1.4-1
		c-0.4-0.4-0.7-0.9-0.9-1.5c-0.2-0.6-0.3-1.2-0.3-1.9V106.8z M384,112c0,0.4,0.1,0.8,0.2,1.2c0.1,0.4,0.3,0.7,0.5,0.9
		c0.2,0.3,0.5,0.5,0.8,0.6c0.3,0.2,0.7,0.2,1.1,0.2c0.4,0,0.8-0.1,1.1-0.2c0.3-0.2,0.6-0.4,0.8-0.6c0.2-0.3,0.4-0.6,0.5-0.9
		c0.1-0.4,0.2-0.7,0.2-1.1v-5.3c0-0.4-0.1-0.8-0.2-1.1c-0.1-0.4-0.3-0.7-0.5-0.9c-0.2-0.3-0.5-0.5-0.8-0.6c-0.3-0.2-0.7-0.2-1.1-0.2
		c-0.4,0-0.8,0.1-1.1,0.2c-0.3,0.2-0.6,0.4-0.8,0.6c-0.2,0.3-0.4,0.6-0.5,0.9c-0.1,0.4-0.2,0.7-0.2,1.1V112z"/>
	<path d="M401.8,104.9c0.2-0.6,0.5-1.1,0.9-1.5c0.4-0.4,0.8-0.8,1.4-1c0.6-0.2,1.2-0.4,1.9-0.4c0.5,0,0.9,0.1,1.3,0.2
		c0.4,0.1,0.8,0.3,1.1,0.5c0.3,0.2,0.6,0.4,0.8,0.7c0.2,0.3,0.4,0.5,0.6,0.8c0.2,0.3,0.3,0.6,0.4,0.9c0.1,0.3,0.1,0.6,0.1,0.9v0.4
		c0,0.1,0,0.2-0.1,0.2c0,0.1-0.1,0.1-0.2,0.1h-1.3c-0.2,0-0.3-0.1-0.3-0.3v-0.2c0-0.3-0.1-0.6-0.2-0.9c-0.1-0.3-0.3-0.6-0.5-0.8
		c-0.2-0.2-0.5-0.4-0.8-0.5c-0.3-0.1-0.7-0.2-1.1-0.2c-0.4,0-0.8,0.1-1.1,0.2c-0.3,0.1-0.6,0.4-0.8,0.6c-0.2,0.3-0.4,0.6-0.5,0.9
		c-0.1,0.4-0.2,0.7-0.2,1.1v5.3c0,0.4,0.1,0.8,0.2,1.2c0.1,0.4,0.3,0.7,0.5,0.9c0.2,0.3,0.5,0.5,0.8,0.6c0.3,0.2,0.7,0.2,1.1,0.2
		c0.4,0,0.8-0.1,1.1-0.2c0.3-0.1,0.6-0.3,0.8-0.6c0.2-0.2,0.4-0.5,0.5-0.8c0.1-0.3,0.2-0.6,0.2-0.9v-0.3c0-0.1,0-0.2,0.1-0.2
		c0.1,0,0.1-0.1,0.2-0.1h1.3c0.1,0,0.2,0,0.2,0.1s0.1,0.2,0.1,0.3v0.2c0,0.6-0.1,1.1-0.3,1.7c-0.2,0.5-0.5,1-0.9,1.3
		c-0.4,0.4-0.9,0.7-1.4,0.9c-0.5,0.2-1.1,0.3-1.8,0.3c-0.7,0-1.3-0.1-1.8-0.4c-0.5-0.2-1-0.6-1.4-1c-0.4-0.4-0.7-0.9-0.9-1.5
		c-0.2-0.6-0.3-1.2-0.3-1.9v-5.1C401.5,106.1,401.6,105.5,401.8,104.9z"/>
	<path d="M414.2,106.8c0-0.7,0.1-1.3,0.3-1.9c0.2-0.6,0.5-1.1,0.8-1.5c0.4-0.4,0.8-0.8,1.4-1c0.6-0.3,1.2-0.4,1.9-0.4
		c0.7,0,1.4,0.1,1.9,0.4c0.6,0.3,1,0.6,1.4,1c0.4,0.4,0.7,0.9,0.9,1.5c0.2,0.6,0.3,1.2,0.3,1.9v5c0,0.7-0.1,1.3-0.3,1.9
		c-0.2,0.6-0.5,1.1-0.9,1.5c-0.4,0.4-0.8,0.8-1.4,1c-0.6,0.3-1.2,0.4-1.9,0.4c-0.7,0-1.4-0.1-1.9-0.4c-0.6-0.3-1-0.6-1.4-1
		c-0.4-0.4-0.7-0.9-0.9-1.5c-0.2-0.6-0.3-1.2-0.3-1.9V106.8z M416.1,112c0,0.4,0.1,0.8,0.2,1.2c0.1,0.4,0.3,0.7,0.5,0.9
		c0.2,0.3,0.5,0.5,0.8,0.6c0.3,0.2,0.7,0.2,1.1,0.2s0.8-0.1,1.1-0.2c0.3-0.2,0.6-0.4,0.8-0.6c0.2-0.3,0.4-0.6,0.5-0.9
		c0.1-0.4,0.2-0.7,0.2-1.1v-5.3c0-0.4-0.1-0.8-0.2-1.1c-0.1-0.4-0.3-0.7-0.5-0.9c-0.2-0.3-0.5-0.5-0.8-0.6c-0.3-0.2-0.7-0.2-1.1-0.2
		c-0.4,0-0.8,0.1-1.1,0.2c-0.3,0.2-0.6,0.4-0.8,0.6c-0.2,0.3-0.4,0.6-0.5,0.9c-0.1,0.4-0.2,0.7-0.2,1.1V112z"/>
	<path d="M429.7,106.6l-0.4-1.3l0.1,1.3l0.1,9.5c0,0.2-0.1,0.4-0.3,0.4h-1.2c-0.1,0-0.2,0-0.2-0.1c0-0.1-0.1-0.2-0.1-0.3v-13.5
		c0-0.1,0-0.2,0.1-0.2c0.1-0.1,0.1-0.1,0.2-0.1h1.4c0.1,0,0.1,0,0.2,0.1c0,0.1,0.1,0.1,0.1,0.2l3.3,8.7l0.2,0.8l0.2-0.8l3.3-8.6
		c0-0.1,0.1-0.2,0.1-0.2c0-0.1,0.1-0.1,0.2-0.1h1.4c0.1,0,0.2,0,0.2,0.1c0.1,0.1,0.1,0.1,0.1,0.2v13.5c0,0.2-0.1,0.4-0.3,0.4h-1.2
		c-0.2,0-0.3-0.1-0.3-0.4l0.1-9.5l0.1-1.2l-0.3,1.2l-2.8,7.3c0,0.1-0.1,0.2-0.1,0.2c0,0-0.1,0.1-0.2,0.1h-0.9c-0.1,0-0.1,0-0.2-0.1
		c0,0-0.1-0.1-0.1-0.2L429.7,106.6z"/>
	<path d="M444.1,102.6c0-0.2,0.1-0.4,0.3-0.4h4.3c0.6,0,1.1,0.1,1.5,0.3c0.5,0.2,0.9,0.5,1.2,0.8c0.3,0.3,0.6,0.7,0.8,1.2
		c0.2,0.5,0.3,1,0.3,1.5v1.6c0,0.5-0.1,1-0.3,1.5c-0.2,0.5-0.5,0.9-0.8,1.2c-0.3,0.4-0.7,0.6-1.2,0.8c-0.5,0.2-1,0.3-1.5,0.3H446
		v4.4c0,0.2-0.1,0.4-0.3,0.4h-1.2c-0.2,0-0.3-0.1-0.3-0.4V102.6z M448.6,109.9c0.3,0,0.6-0.1,0.8-0.2c0.2-0.1,0.5-0.3,0.6-0.5
		c0.2-0.2,0.3-0.4,0.4-0.7c0.1-0.3,0.2-0.5,0.2-0.8v-1.6c0-0.3,0-0.6-0.1-0.8c-0.1-0.3-0.2-0.5-0.4-0.7c-0.2-0.2-0.4-0.3-0.6-0.5
		c-0.3-0.1-0.5-0.2-0.8-0.2H446v5.8H448.6z"/>
	<path d="M456.7,102.6c0-0.2,0.1-0.4,0.3-0.4h4.3c0.6,0,1.1,0.1,1.5,0.3c0.5,0.2,0.9,0.5,1.2,0.8c0.3,0.3,0.6,0.7,0.8,1.2
		c0.2,0.5,0.3,1,0.3,1.5v1.2c0,0.4,0,0.7-0.1,1.1c-0.1,0.3-0.2,0.6-0.4,0.9c-0.2,0.3-0.4,0.5-0.6,0.8c-0.2,0.2-0.5,0.4-0.7,0.6
		l0.2,0.3l1.7,5.1c0,0.1,0,0.2,0,0.3c0,0.1-0.1,0.1-0.2,0.1h-1.4c-0.1,0-0.1,0-0.2-0.1c-0.1,0-0.1-0.1-0.1-0.2l-1.5-4.9
		c-0.1,0-0.1,0-0.2,0c-0.1,0-0.1,0-0.2,0h-2.7v4.8c0,0.2-0.1,0.4-0.3,0.4h-1.2c-0.2,0-0.3-0.1-0.3-0.4V102.6z M458.6,104v5.5h2.6
		c0.3,0,0.6-0.1,0.9-0.2c0.3-0.1,0.5-0.3,0.6-0.5c0.2-0.2,0.3-0.4,0.4-0.7c0.1-0.3,0.1-0.5,0.1-0.8v-1.3c0-0.3,0-0.6-0.1-0.8
		c-0.1-0.3-0.2-0.5-0.4-0.7c-0.2-0.2-0.4-0.3-0.7-0.5c-0.3-0.1-0.5-0.2-0.8-0.2H458.6z"/>
	<path d="M469.2,106.8c0-0.7,0.1-1.3,0.3-1.9c0.2-0.6,0.5-1.1,0.8-1.5c0.4-0.4,0.8-0.8,1.4-1c0.6-0.3,1.2-0.4,1.9-0.4
		c0.7,0,1.4,0.1,1.9,0.4c0.6,0.3,1,0.6,1.4,1c0.4,0.4,0.7,0.9,0.9,1.5c0.2,0.6,0.3,1.2,0.3,1.9v5c0,0.7-0.1,1.3-0.3,1.9
		c-0.2,0.6-0.5,1.1-0.9,1.5c-0.4,0.4-0.8,0.8-1.4,1c-0.6,0.3-1.2,0.4-1.9,0.4c-0.7,0-1.4-0.1-1.9-0.4c-0.6-0.3-1-0.6-1.4-1
		c-0.4-0.4-0.7-0.9-0.9-1.5c-0.2-0.6-0.3-1.2-0.3-1.9V106.8z M471,112c0,0.4,0.1,0.8,0.2,1.2c0.1,0.4,0.3,0.7,0.5,0.9
		c0.2,0.3,0.5,0.5,0.8,0.6c0.3,0.2,0.7,0.2,1.1,0.2c0.4,0,0.8-0.1,1.1-0.2c0.3-0.2,0.6-0.4,0.8-0.6c0.2-0.3,0.4-0.6,0.5-0.9
		c0.1-0.4,0.2-0.7,0.2-1.1v-5.3c0-0.4-0.1-0.8-0.2-1.1c-0.1-0.4-0.3-0.7-0.5-0.9c-0.2-0.3-0.5-0.5-0.8-0.6c-0.3-0.2-0.7-0.2-1.1-0.2
		c-0.4,0-0.8,0.1-1.1,0.2c-0.3,0.2-0.6,0.4-0.8,0.6c-0.2,0.3-0.4,0.6-0.5,0.9c-0.1,0.4-0.2,0.7-0.2,1.1V112z"/>
	<path d="M484.7,106.6l-0.4-1.3l0.1,1.3l0.1,9.5c0,0.2-0.1,0.4-0.3,0.4H483c-0.1,0-0.2,0-0.2-0.1c0-0.1-0.1-0.2-0.1-0.3v-13.5
		c0-0.1,0-0.2,0.1-0.2c0.1-0.1,0.1-0.1,0.2-0.1h1.4c0.1,0,0.1,0,0.2,0.1c0,0.1,0.1,0.1,0.1,0.2l3.3,8.7l0.2,0.8l0.2-0.8l3.3-8.6
		c0-0.1,0.1-0.2,0.1-0.2c0-0.1,0.1-0.1,0.2-0.1h1.4c0.1,0,0.2,0,0.2,0.1c0.1,0.1,0.1,0.1,0.1,0.2v13.5c0,0.2-0.1,0.4-0.3,0.4h-1.2
		c-0.2,0-0.3-0.1-0.3-0.4l0.1-9.5l0.1-1.2l-0.3,1.2l-2.8,7.3c0,0.1-0.1,0.2-0.1,0.2c0,0-0.1,0.1-0.2,0.1h-0.9c-0.1,0-0.1,0-0.2-0.1
		c0,0-0.1-0.1-0.1-0.2L484.7,106.6z"/>
	<path d="M499,102.6c0-0.2,0.1-0.4,0.3-0.4h1.2c0.2,0,0.3,0.1,0.3,0.4v13.4c0,0.2-0.1,0.4-0.3,0.4h-1.2c-0.2,0-0.3-0.1-0.3-0.4
		V102.6z"/>
	<path d="M505.3,112.5c0-0.1,0-0.2,0.1-0.2c0-0.1,0.1-0.1,0.2-0.1h1.2c0.2,0,0.3,0.1,0.3,0.3v0.2c0,0.4,0.1,0.7,0.2,0.9
		c0.1,0.3,0.3,0.5,0.6,0.7c0.2,0.2,0.5,0.3,0.8,0.5c0.3,0.1,0.7,0.2,1,0.2c0.3,0,0.6-0.1,0.9-0.2c0.3-0.1,0.5-0.2,0.8-0.4
		c0.2-0.2,0.4-0.4,0.5-0.6c0.1-0.2,0.2-0.5,0.2-0.8c0-0.3-0.1-0.6-0.2-0.8c-0.1-0.3-0.3-0.5-0.6-0.7c-0.3-0.2-0.6-0.5-1-0.7
		c-0.4-0.2-0.9-0.5-1.4-0.8c-0.5-0.3-1-0.5-1.4-0.8c-0.4-0.3-0.8-0.5-1.1-0.9c-0.3-0.3-0.6-0.7-0.7-1.1c-0.2-0.4-0.3-0.8-0.3-1.4
		c0-0.7,0.1-1.2,0.4-1.7c0.3-0.5,0.6-0.9,1-1.2c0.4-0.3,0.8-0.5,1.3-0.7c0.5-0.2,1-0.2,1.4-0.2c0.7,0,1.3,0.1,1.8,0.3
		c0.5,0.2,1,0.5,1.3,0.9c0.4,0.4,0.6,0.8,0.8,1.3c0.2,0.5,0.3,0.9,0.3,1.4v0.2c0,0.1,0,0.2-0.1,0.3c-0.1,0.1-0.1,0.1-0.2,0.1h-1.2
		c-0.1,0-0.2,0-0.2-0.1c-0.1,0-0.1-0.1-0.1-0.2V106c0-0.3-0.1-0.6-0.2-0.9c-0.1-0.3-0.3-0.5-0.5-0.7c-0.2-0.2-0.5-0.4-0.7-0.5
		c-0.3-0.1-0.6-0.2-0.9-0.2c-0.3,0-0.5,0-0.8,0.1c-0.3,0.1-0.5,0.2-0.8,0.4c-0.2,0.2-0.4,0.4-0.6,0.6c-0.1,0.3-0.2,0.6-0.2,0.9
		c0,0.3,0.1,0.6,0.2,0.8c0.1,0.2,0.3,0.5,0.6,0.7c0.2,0.2,0.5,0.4,0.8,0.6c0.3,0.2,0.6,0.3,0.9,0.5c0.7,0.4,1.3,0.7,1.9,1
		c0.5,0.3,1,0.7,1.3,1c0.3,0.4,0.6,0.7,0.7,1.1c0.2,0.4,0.2,0.9,0.2,1.4c0,0.5-0.1,1-0.3,1.5c-0.2,0.5-0.5,0.9-0.9,1.2
		c-0.4,0.3-0.8,0.6-1.4,0.8c-0.5,0.2-1.1,0.3-1.7,0.3c-0.7,0-1.3-0.1-1.8-0.3c-0.5-0.2-1-0.5-1.4-0.9c-0.4-0.4-0.7-0.8-0.9-1.3
		C505.4,113.7,505.3,113.2,505.3,112.5L505.3,112.5z"/>
	<path d="M517.6,106.8c0-0.7,0.1-1.3,0.3-1.9c0.2-0.6,0.5-1.1,0.8-1.5c0.4-0.4,0.8-0.8,1.4-1c0.6-0.3,1.2-0.4,1.9-0.4
		c0.7,0,1.4,0.1,1.9,0.4c0.6,0.3,1,0.6,1.4,1c0.4,0.4,0.7,0.9,0.9,1.5c0.2,0.6,0.3,1.2,0.3,1.9v5c0,0.7-0.1,1.3-0.3,1.9
		c-0.2,0.6-0.5,1.1-0.9,1.5c-0.4,0.4-0.8,0.8-1.4,1c-0.6,0.3-1.2,0.4-1.9,0.4c-0.7,0-1.4-0.1-1.9-0.4c-0.6-0.3-1-0.6-1.4-1
		c-0.4-0.4-0.7-0.9-0.9-1.5c-0.2-0.6-0.3-1.2-0.3-1.9V106.8z M519.5,112c0,0.4,0.1,0.8,0.2,1.2c0.1,0.4,0.3,0.7,0.5,0.9
		c0.2,0.3,0.5,0.5,0.8,0.6c0.3,0.2,0.7,0.2,1.1,0.2s0.8-0.1,1.1-0.2c0.3-0.2,0.6-0.4,0.8-0.6c0.2-0.3,0.4-0.6,0.5-0.9
		c0.1-0.4,0.2-0.7,0.2-1.1v-5.3c0-0.4-0.1-0.8-0.2-1.1c-0.1-0.4-0.3-0.7-0.5-0.9c-0.2-0.3-0.5-0.5-0.8-0.6c-0.3-0.2-0.7-0.2-1.1-0.2
		c-0.4,0-0.8,0.1-1.1,0.2c-0.3,0.2-0.6,0.4-0.8,0.6c-0.2,0.3-0.4,0.6-0.5,0.9c-0.1,0.4-0.2,0.7-0.2,1.1V112z"/>
</g>
<g>
	<path d="M127.8,95.7V83.9H144c1.1,0,1.7-0.4,1.7-1.3V71c0-0.9-0.2-1.4-0.6-1.6c-0.4-0.2-1.1-0.3-2.1-0.3h-7.3c-1,0-2-0.1-3-0.2
		c-0.9-0.1-1.8-0.5-2.5-1c-0.8-0.5-1.3-1.3-1.8-2.2c-0.4-0.9-0.6-2.2-0.6-3.8V40.4c0-2.5,0.8-4.5,2.3-6c1.5-1.5,4-2.2,7.3-2.2h22.1
		L159.4,44h-16c-1.2,0-1.8,0.5-1.8,1.4V57c0,0.6,0.2,1.1,0.5,1.3c0.4,0.2,0.9,0.4,1.6,0.4h8.9c2.3,0,4,0.5,5.2,1.4
		c1.2,1,1.8,2.6,1.8,5V86c0,3.5-0.8,6-2.4,7.4c-1.6,1.5-4.4,2.2-8.5,2.2H127.8z"/>
	<polygon points="175.4,32.2 205.4,32.2 205.4,44 189.9,44 189.9,59.1 201.7,59.1 201.7,70 189.9,70 189.9,83.9 205.4,83.9 
		205.4,95.7 175.4,95.7 	"/>
	<path d="M256.6,69.8c0,1.4-0.5,2.7-1.6,3.9c-1.1,1.2-2.7,1.8-4.7,1.8l7.4,20.2H243l-6.9-20.2h-1.9v20.2h-14.2V32.2H247
		c3.3,0,5.8,0.7,7.3,2.2c1.5,1.5,2.3,3.5,2.3,6V69.8z M234.3,43.3v21.9h6.9c0.9,0,1.4-0.4,1.4-1.3V44.6c0-0.9-0.5-1.3-1.4-1.3H234.3
		z"/>
	<path d="M300.3,32.2c2.8,0,4.9,0.7,6.3,2.1c1.4,1.4,2.1,3.3,2.1,5.6v30.4c0,1.2-0.1,2.3-0.4,3.4c-0.3,1-0.8,1.9-1.6,2.7
		c-0.8,0.8-1.8,1.4-3.1,1.8c-1.3,0.4-2.9,0.7-4.9,0.7h-12.1v16.9h-14.1V32.2H300.3z M286.5,43.3v25h7c0.6,0,1-0.1,1.1-0.3
		c0.2-0.2,0.2-0.5,0.2-1V44.5c0-0.8-0.4-1.2-1.3-1.2H286.5z"/>
	<polygon points="350.4,95.7 335.5,95.7 335.5,79.6 321.9,32.2 336.5,32.2 342.9,62.1 349.3,32.2 364,32.2 350.4,79.6 	"/>
	<polygon class="st2" points="391.5,65.7 391.5,95.7 377.7,95.7 377.7,32.2 392.7,32.2 400.4,59 408.2,32.2 423.2,32.2 423.2,95.7 
		409.4,95.7 409.4,65.7 400.4,91.1 	"/>
	<path class="st2" d="M452.5,87.8l-1.3,7.9h-14.3l12.8-63.5h15.2l12.8,63.5h-14.3l-1.3-7.9H452.5z M454.1,77.7h6.6l-3.2-22.5
		L454.1,77.7z"/>
	<polygon class="st2" points="491.4,32.2 504.9,32.2 512.2,57.7 512.2,32.2 526.8,32.2 526.8,95.7 512.2,95.7 504.6,69.1 
		504.6,95.7 491.4,95.7 	"/>
</g>
</svg>
