<?xml version="1.0" encoding="utf-8"?>
<!-- Generator: Adobe Illustrator 16.0.0, SVG Export Plug-In . SVG Version: 6.00 Build 0)  -->
<!DOCTYPE svg PUBLIC "-//W3C//DTD SVG 1.1//EN" "http://www.w3.org/Graphics/SVG/1.1/DTD/svg11.dtd">
<svg version="1.1" id="Layer_1" xmlns="http://www.w3.org/2000/svg" xmlns:xlink="http://www.w3.org/1999/xlink" x="0px" y="0px"
	 width="1263.205px" height="347px" viewBox="7.404 534.994 1263.205 347" enable-background="new 7.404 534.994 1263.205 347"
	 xml:space="preserve">
<g>
	<path fill="#E6BB4A" stroke="#070809" stroke-width="0.8554" stroke-miterlimit="10" d="M246.243,766.543
		c-6.512,5.547-13.747,10.129-21.224,14.229L83.688,859.155l-8.2-15.194l142.295-76.695c7.477-4.341,15.194-7.717,23.394-10.129
		l26.289-7.959L246.243,766.543z"/>
	<g>
		<path d="M80.794,843.72c0,0,139.16-75.729,147.36-79.348c16.882-7.235,25.324-7.959,25.324-7.959L82.242,847.819L80.794,843.72z"
			/>
	</g>
	<g>
		<path d="M91.165,881.102c-0.723,0-1.447-0.48-2.17-1.688c-0.724-0.965-7.235-12.782-11.577-20.259c0,0,0,0-0.241,0
			c-0.241,0.241-0.724,0.241-0.964,0.241h-0.241c-0.241,0.481-0.724,0.964-1.206,1.205c-0.482,0.24-0.965,0.481-1.447,0.481l0,0
			c-0.241,0.482-0.723,0.724-1.206,1.206c-0.482,0.241-0.965,0.482-1.447,0.482h-0.241c-0.241,0.481-0.724,0.965-1.206,1.205
			c-0.482,0.241-0.965,0.482-1.447,0.482c0,0,0,0-0.241,0c-0.241,0.482-0.724,0.965-1.206,1.206
			c-0.482,0.241-0.964,0.482-1.447,0.482l0,0c-0.241,0.481-0.724,0.724-1.206,1.204c-0.482,0.241-0.965,0.482-1.447,0.482h-0.241
			c-0.241,0.482-0.724,0.965-1.206,1.206s-0.965,0.482-1.447,0.482l0,0c-0.241,0.481-0.723,0.724-1.206,0.965
			s-0.965,0.481-1.447,0.481l0,0c-0.241,0.482-0.724,0.725-1.206,1.206c-0.482,0.241-0.964,0.482-1.447,0.482h-0.241
			c-0.241,0.481-0.724,0.964-1.206,1.205c-0.241,0.241-0.482,0.241-0.724,0.241c-0.723,1.446-1.929,2.652-3.376,3.617
			c-1.206,0.725-2.653,1.206-4.1,1.206c-2.653,0-4.824-1.206-6.03-3.377c-0.724-1.446-0.964-3.135-0.482-5.063
			c0.482-1.931,1.93-3.859,3.859-4.823c1.206-0.724,2.653-1.206,4.1-1.206c0.241,0,0.482,0,0.724,0
			c0.241-0.241,0.241-0.241,0.482-0.241c0.482-0.241,0.964-0.481,1.447-0.481h0.241c0.241-0.482,0.724-0.966,1.206-1.206
			c0.482-0.241,0.965-0.482,1.447-0.482l0,0c0.241-0.481,0.723-0.724,1.206-1.206c0.482-0.241,0.965-0.481,1.447-0.481l0,0
			c0.241-0.482,0.724-0.725,1.206-0.964c0.482-0.241,0.965-0.482,1.447-0.482h0.241c0.241-0.482,0.724-0.965,1.206-1.206
			s0.964-0.482,1.447-0.482l0,0c0.241-0.481,0.724-0.724,1.206-1.206c0.482-0.24,0.965-0.481,1.447-0.481c0,0,0,0,0.241,0
			c0.241-0.482,0.724-0.965,1.206-1.206s0.965-0.482,1.447-0.482h0.241c0.241-0.481,0.723-0.964,1.206-1.205
			c0.483-0.24,0.965-0.481,1.447-0.481l0,0c0.241-0.482,0.724-0.724,1.206-1.206c0.482-0.241,0.964-0.482,1.447-0.482
			c0,0,0,0,0.241,0c0.241-0.481,0.482-0.724,0.965-0.965c0,0,0,0,0.241,0c-7.235-13.022-10.853-19.535-11.335-20.5
			c-0.724-1.447-0.482-2.412-0.241-2.652c0.241-0.482,0.724-0.966,2.412-1.93c2.171-1.206,6.271-2.171,6.271-2.171
			c0.241,0,0.482,0,0.482,0h0.241l0.241,0.241c0.241,0.241,0.241,0.724,0,2.17l-0.241,1.447c-0.241,2.171,0.965,4.101,2.653,6.512
			c0.723,0.965,1.447,1.93,1.929,3.136c1.929,3.617,5.306,7.719,5.306,7.959c2.17,3.376,2.17,3.617,2.17,3.858s0,0.965-0.241,2.895
			c0.724,0.482,2.17,1.206,2.412,1.206c0.242,0,0.482,0.241,2.171,3.858c0,0.241,1.929,5.063,4.1,8.683
			c0.723,0.965,1.206,2.171,1.688,3.136c1.206,2.411,2.171,4.582,4.1,5.548l1.447,0.724c1.447,0.724,1.688,0.724,1.688,1.205v0.482
			l-0.241,0.481c-0.241,0.241-3.135,3.136-5.306,4.342C92.854,880.62,91.889,881.102,91.165,881.102L91.165,881.102z"/>
		<path fill="#E6BB4A" d="M69.7,822.979c0.241,0,0,0.241-0.241,3.136c-0.482,3.377,2.653,6.271,4.583,9.889
			c1.93,3.617,5.306,7.959,5.306,7.959s1.929,3.135,1.929,3.617c0,0.241-0.241,2.895-0.241,3.136
			c0.241,0.241,2.653,1.206,2.894,1.447c0.241,0.241,1.93,3.617,1.93,3.617s1.929,5.063,4.1,8.683
			c2.17,3.617,2.894,7.718,6.029,9.165c3.135,1.446,2.894,1.205,2.653,1.688c0,0-3.135,2.896-5.064,4.102
			c-1.447,0.965-2.171,0.965-2.412,0.965l0,0l0,0c-0.241,0-0.723-0.241-1.447-1.206c-0.724-1.206-8.2-14.229-12.059-21.224
			c0,0.241-0.241,0.481-0.724,0.724c-0.241,0.241-0.482,0.241-0.723,0.241c-0.241,0-0.482,0-0.724-0.241
			c0,0.482-0.482,1.206-0.965,1.446c-0.241,0.241-0.724,0.241-0.965,0.241c-0.241,0-0.482,0-0.482,0
			c0,0.481-0.482,0.965-0.965,1.206c-0.241,0.24-0.724,0.24-0.965,0.24c-0.241,0-0.482,0-0.724-0.24
			c0,0.481-0.482,1.206-0.965,1.446c-0.241,0.241-0.723,0.241-0.964,0.241c-0.241,0-0.482,0-0.724-0.241
			c0,0.482-0.482,0.966-0.965,1.447c-0.241,0.241-0.723,0.241-0.964,0.241c-0.241,0-0.482,0-0.482,0
			c0,0.482-0.482,0.965-0.965,1.206c-0.241,0.241-0.724,0.241-0.965,0.241c-0.241,0-0.482,0-0.724-0.241
			c0,0.481-0.482,1.206-0.964,1.447c-0.241,0.24-0.724,0.24-0.965,0.24c-0.241,0-0.482,0-0.482,0c0,0.481-0.482,0.965-0.965,1.205
			c-0.241,0.241-0.723,0.241-0.964,0.241c-0.241,0-0.482,0-0.482,0c0,0.482-0.482,0.965-0.965,1.206
			c-0.241,0.241-0.724,0.241-0.965,0.241c-0.241,0-0.482,0-0.723-0.241c0,0.482-0.482,1.206-0.965,1.447
			c-0.241,0.241-0.241,0.241-0.482,0.241c0,0,0,0-0.241,0l0,0c-0.724,1.446-1.688,2.895-3.376,3.617
			c-1.206,0.724-2.653,0.965-3.859,0.965c-2.17,0-4.341-0.965-5.306-2.895c-1.688-2.895-0.241-6.994,3.136-8.924
			c1.206-0.724,2.653-0.965,3.859-0.965c0.482,0,0.723,0,1.206,0c0.241-0.241-0.241-0.241,0.482-0.482
			c0.241-0.24,0.724-0.24,0.965-0.24c0.241,0,0.482,0,0.724,0.24c0-0.481,0.482-1.206,0.964-1.446
			c0.241-0.241,0.724-0.241,0.965-0.241c0.241,0,0.482,0,0.482,0c0-0.482,0.482-0.964,0.965-1.205
			c0.241-0.241,0.723-0.241,0.964-0.241c0.241,0,0.482,0,0.482,0c0-0.482,0.482-0.965,0.965-1.206
			c0.241-0.241,0.724-0.241,0.965-0.241s0.482,0,0.724,0.241c0-0.482,0.482-1.206,0.964-1.447c0.241-0.24,0.724-0.24,0.965-0.24
			c0.241,0,0.482,0,0.482,0c0-0.482,0.482-0.966,0.965-1.206c0.241-0.241,0.723-0.241,0.964-0.241c0.241,0,0.482,0,0.724,0.241
			c0-0.482,0.482-0.966,0.965-1.447c0.241-0.241,0.724-0.241,0.965-0.241c0.241,0,0.482,0,0.723,0.241
			c0-0.482,0.482-1.205,0.965-1.446c0.241-0.241,0.724-0.241,0.965-0.241c0.241,0,0.482,0,0.482,0c0-0.481,0.482-0.965,0.964-1.206
			c0.241-0.24,0.724-0.24,0.965-0.24c0.241,0,0.482,0,0.724,0.24c0-0.481,0.241-0.965,0.724-1.206c0.241-0.24,0.482-0.24,0.724-0.24
			h0.241c-3.859-6.753-11.335-20.26-11.817-21.466c-0.724-1.688-0.241-1.93-0.241-1.93s0-0.481,2.17-1.688
			C65.601,823.943,69.7,822.979,69.7,822.979L69.7,822.979 M69.7,821.29L69.7,821.29L69.7,821.29h-0.482l0,0h-0.241
			c-0.241,0-4.1,1.206-6.512,2.412c-1.688,0.723-2.412,1.446-2.894,2.17c-0.482,0.481-0.724,1.688,0.241,3.377
			c0.482,0.724,4.1,7.235,11.094,19.776c-0.241,0.24-0.482,0.481-0.482,0.724c-0.482,0-0.965,0.241-1.447,0.481
			c-0.482,0.241-0.965,0.725-1.206,0.966c-0.482,0-0.965,0.241-1.447,0.481c-0.482,0.241-0.964,0.725-1.206,1.205
			c-0.482,0-1.206,0.241-1.688,0.482c-0.482,0.24-0.965,0.724-1.206,0.965c-0.482,0-0.964,0.241-1.447,0.482
			c-0.483,0.24-0.965,0.724-1.206,0.965c-0.482,0-0.964,0.24-1.447,0.481s-0.965,0.725-1.206,1.206
			c-0.482,0-1.206,0.241-1.688,0.482s-0.964,0.481-1.206,0.965c-0.482,0-0.965,0.241-1.447,0.48
			c-0.482,0.241-0.964,0.725-1.206,0.966c-0.482,0-0.965,0.241-1.447,0.481c-0.482,0.241-0.965,0.725-1.206,1.206
			c-0.482,0-1.206,0.241-1.688,0.482c0,0-0.241,0-0.241,0.241c-0.241,0-0.241,0-0.482,0c-1.688,0-3.135,0.481-4.583,1.205
			c-2.17,1.206-3.618,3.136-4.341,5.307c-0.482,1.93-0.241,3.859,0.724,5.547c1.206,2.412,3.859,3.618,6.753,3.618
			c1.688,0,3.135-0.482,4.583-1.206c1.447-0.965,2.653-2.171,3.618-3.618c0.241,0,0.241-0.241,0.482-0.241
			c0.482-0.241,0.965-0.723,1.206-1.205c0.482,0,1.206-0.24,1.688-0.481s0.965-0.725,1.206-0.965c0.482,0,0.965-0.241,1.447-0.482
			s0.965-0.724,1.206-0.965c0.482,0,0.965-0.241,1.447-0.482c0.482-0.241,0.964-0.724,1.206-1.206c0.482,0,1.206-0.24,1.688-0.481
			c0.482-0.241,0.965-0.724,1.206-0.964c0.482,0,0.964-0.241,1.447-0.482s0.965-0.724,1.206-0.965c0.482,0,0.964-0.241,1.447-0.482
			c0.483-0.24,0.965-0.724,1.206-1.206c0.482,0,1.206-0.24,1.688-0.481s0.964-0.725,1.206-0.965c0.482,0,0.965-0.241,1.447-0.482
			c0.482-0.241,0.964-0.724,1.206-0.965c0.241,0,0.482,0,0.724-0.24c5.065,8.682,10.612,18.57,11.094,19.535
			c0.724,1.447,1.688,1.93,2.653,1.93l0,0c0,0,0,0,0.241,0c0.482,0,1.206-0.241,3.135-1.206c2.171-1.446,5.306-4.342,5.306-4.342
			l0,0l0,0c0.482-0.481,0.482-0.965,0.482-1.447c-0.241-0.964-0.724-1.205-2.171-1.688c-0.482-0.241-0.723-0.482-1.447-0.724
			c-1.688-0.725-2.653-2.896-3.859-5.307c-0.482-1.206-0.965-2.171-1.688-3.377c-1.929-3.376-3.859-8.441-3.859-8.441l0,0l0,0
			c-1.929-3.616-2.17-3.857-2.412-4.1s-1.447-0.724-2.17-1.206c0.241-1.688,0.241-2.171,0.241-2.412c0-0.481,0-0.724-2.171-4.341
			l0,0l0,0c0,0-3.376-4.341-5.306-7.718c-0.724-1.206-1.206-2.171-1.93-3.136c-1.447-2.17-2.653-4.101-2.412-6.029l0.241-1.446
			c0.241-1.688,0.241-2.171-0.241-2.652l-0.482-0.482H69.7L69.7,821.29z"/>
	</g>
</g>
<g>
	<path fill="#E6BB4A" stroke="#070809" stroke-width="0.8554" stroke-miterlimit="10" d="M30.389,766.543
		c6.512,5.547,13.747,10.129,21.224,14.229l141.33,78.383l8.2-15.194L58.848,767.266c-7.477-4.341-15.194-7.717-23.395-10.129
		l-26.047-8.2L30.389,766.543z"/>
	<g>
		<path d="M194.389,847.819L23.153,756.413c0,0,8.441,0.724,25.323,7.959c8.2,3.376,147.36,79.348,147.36,79.348L194.389,847.819z"
			/>
	</g>
	<g>
		<path d="M185.225,881.102c-0.482,0-1.447-0.48-2.894-1.205c-2.171-1.205-5.065-4.101-5.306-4.342
			c-0.241-0.24-0.482-0.481-0.482-0.965c0-0.482,0.241-0.723,1.688-1.205l1.447-0.724c1.929-0.965,2.894-3.136,4.1-5.548
			c0.482-0.964,0.965-2.17,1.688-3.376c1.929-3.377,3.859-8.441,3.859-8.684c1.688-3.616,2.17-3.857,2.17-3.857
			c0.241-0.241,1.688-0.965,2.412-1.206c-0.241-1.688-0.241-2.653-0.241-2.896c0-0.241,0-0.481,2.17-3.857
			c0,0,3.376-4.342,5.306-7.959c0.482-1.206,1.206-2.171,1.929-3.136c1.447-2.171,2.894-4.342,2.653-6.513l-0.241-1.447
			c-0.241-1.445-0.241-1.688,0-2.17l0.241-0.24h0.482h0.241c0.482,0,4.341,1.206,6.512,2.41c1.688,0.966,2.412,1.447,2.412,1.931
			c0.241,0.481,0.482,1.206-0.241,2.652c-0.482,1.206-7.235,12.782-11.335,20.5c0,0,0,0,0.241,0
			c0.482,0.241,0.723,0.725,0.964,0.966c0,0,0,0,0.241,0c0.482,0,0.965,0.24,1.447,0.481s0.965,0.725,1.206,1.206l0,0
			c0.482,0,0.964,0.241,1.447,0.481c0.482,0.24,0.965,0.724,1.206,1.206h0.241c0.482,0,0.964,0.24,1.447,0.481
			s0.965,0.725,1.206,1.206c0,0,0,0,0.241,0c0.482,0,0.965,0.241,1.447,0.482s0.964,0.724,1.206,1.206l0,0
			c0.482,0,0.965,0.24,1.447,0.481c0.482,0.241,0.964,0.725,1.206,1.206h0.241c0.482,0,0.965,0.241,1.447,0.481
			c0.482,0.241,0.965,0.724,1.206,0.965l0,0c0.482,0,0.964,0.241,1.447,0.481c0.483,0.241,0.965,0.725,1.206,1.206l0,0
			c0.482,0,0.965,0.241,1.447,0.482s0.965,0.724,1.206,1.206h0.241c0.482,0,0.965,0.241,1.447,0.481
			c0.241,0,0.241,0.241,0.482,0.241c0.241,0,0.482,0,0.723,0c1.447,0,2.894,0.482,4.1,1.206c1.93,1.205,3.376,2.895,3.859,4.823
			c0.482,1.688,0.241,3.617-0.482,5.064c-1.206,2.171-3.376,3.377-6.029,3.377c-1.447,0-2.894-0.482-4.1-1.206
			c-1.447-0.725-2.653-2.171-3.376-3.618c-0.241,0-0.241-0.241-0.724-0.241c-0.482-0.241-0.964-0.723-1.206-1.205h-0.241
			c-0.482,0-0.965-0.241-1.447-0.481c-0.482-0.241-0.965-0.725-1.206-1.206l0,0c-0.482,0-0.964-0.241-1.447-0.482
			c-0.483-0.241-0.965-0.724-1.206-0.965l0,0c-0.482,0-0.965-0.241-1.447-0.482s-0.965-0.724-1.206-1.206h-0.241
			c-0.482,0-0.965-0.24-1.447-0.481s-0.964-0.725-1.206-1.205l0,0c-0.482,0-0.965-0.241-1.447-0.482s-0.965-0.724-1.206-1.206
			c0,0,0,0-0.241,0c-0.482,0-0.965-0.24-1.447-0.481s-0.965-0.725-1.206-1.206h-0.241c-0.482,0-0.964-0.241-1.447-0.482
			c-0.483-0.24-0.965-0.724-1.206-1.206l0,0c-0.482,0-0.965-0.241-1.447-0.481c-0.482-0.241-0.965-0.725-1.206-1.205h-0.241
			c-0.482,0-0.724,0-0.965-0.241c0,0,0,0-0.241,0c-7.235,12.782-11.094,19.294-11.576,20.259
			C186.913,880.62,186.189,881.102,185.225,881.102L185.225,881.102z"/>
		<path fill="#E6BB4A" d="M206.931,822.979h0.241c0,0,4.1,1.205,6.271,2.171c2.171,1.206,2.171,1.688,2.171,1.688
			s0.482,0.482-0.241,1.93c-0.724,1.206-8.2,14.712-11.818,21.466h0.241c0.241,0,0.482,0,0.724,0.24
			c0.482,0.241,0.723,0.725,0.723,1.206c0.241,0,0.482-0.241,0.724-0.241c0.242,0,0.724,0,0.965,0.241
			c0.482,0.241,0.965,0.725,0.965,1.206c0.241,0,0.482,0,0.482,0c0.241,0,0.723,0,0.964,0.24c0.724,0.241,0.965,0.965,0.965,1.447
			c0.241-0.241,0.482-0.241,0.724-0.241c0.242,0,0.724,0,0.964,0.241c0.482,0.241,0.965,0.965,0.965,1.447
			c0.241,0,0.482-0.241,0.724-0.241c0.242,0,0.724,0,0.965,0.241c0.482,0.24,0.965,0.724,0.965,1.205c0.241,0,0.482,0,0.482,0
			c0.241,0,0.723,0,0.964,0.241c0.724,0.241,0.965,0.965,0.965,1.447c0.241-0.241,0.482-0.241,0.724-0.241s0.723,0,0.964,0.241
			c0.482,0.241,0.965,0.724,0.965,1.206c0.241,0,0.241,0,0.482,0c0.241,0,0.724,0,0.965,0.241c0.482,0.241,0.965,0.723,0.965,1.205
			c0.241,0,0.482,0,0.482,0c0.241,0,0.724,0,0.965,0.241c0.724,0.24,0.965,0.965,0.965,1.446c0.241-0.241,0.482-0.241,0.724-0.241
			c0.241,0,0.723,0,0.964,0.241c0.482,0.241,0.241,0.241,0.482,0.482c0.482,0,0.724,0,1.206,0c1.206,0,2.653,0.241,3.859,0.965
			c3.376,1.93,4.824,5.788,3.135,8.924c-0.965,1.929-3.135,2.895-5.306,2.895c-1.206,0-2.653-0.241-3.859-0.966
			c-1.688-0.964-2.653-2.17-3.376-3.616l0,0c-0.241,0-0.241,0-0.241,0s-0.241,0-0.482-0.241c-0.724-0.241-0.965-0.965-0.965-1.447
			c-0.241,0.241-0.482,0.241-0.724,0.241s-0.724,0-0.965-0.241c-0.482-0.241-0.964-0.724-0.964-1.206c-0.241,0-0.241,0-0.482,0
			c-0.241,0-0.724,0-0.965-0.241c-0.482-0.24-0.965-0.724-0.965-1.206c-0.241,0-0.241,0-0.482,0c-0.241,0-0.724,0-0.965-0.239
			c-0.724-0.241-0.965-0.966-0.965-1.447c-0.241,0.241-0.482,0.241-0.724,0.241c-0.242,0-0.724,0-0.965-0.241
			c-0.482-0.241-0.964-0.725-0.964-1.206c-0.241,0-0.241,0-0.482,0c-0.241,0-0.724,0-0.965-0.241
			c-0.482-0.241-0.965-0.965-0.965-1.447c-0.241,0-0.482,0.241-0.723,0.241s-0.724,0-0.965-0.241
			c-0.724-0.24-0.965-0.965-0.965-1.446c-0.241,0.24-0.482,0.24-0.724,0.24c-0.242,0-0.724,0-0.964-0.24
			c-0.482-0.241-0.965-0.725-0.965-1.206c-0.241,0-0.482,0-0.482,0c-0.241,0-0.724,0-0.965-0.241
			c-0.723-0.241-0.964-0.964-0.964-1.446c-0.241,0.241-0.482,0.241-0.724,0.241c-0.242,0-0.482,0-0.724-0.241
			s-0.482-0.481-0.724-0.724c-3.859,6.753-11.335,20.018-12.059,21.224c-0.724,1.206-1.206,1.206-1.447,1.206l0,0l0,0
			c-0.241,0-0.965-0.241-2.412-0.965c-2.17-1.206-5.064-4.101-5.064-4.101c-0.241-0.482-0.482-0.241,2.653-1.688
			c3.135-1.447,4.1-5.548,6.03-9.165c2.17-3.618,4.1-8.683,4.1-8.683s1.688-3.376,1.93-3.617c0.242-0.241,2.653-1.206,2.894-1.447
			c0-0.481-0.241-2.895-0.241-3.136c0-0.482,1.93-3.617,1.93-3.617s3.376-4.342,5.306-7.959c1.929-3.618,5.065-6.512,4.583-9.889
			C206.689,823.22,206.689,822.979,206.931,822.979 M206.931,821.29h-0.724l-0.482,0.481c-0.482,0.725-0.482,1.206-0.241,2.652
			l0.241,1.447c0.241,1.93-0.965,3.859-2.412,6.029c-0.724,0.965-1.447,1.93-1.929,3.136c-1.93,3.377-5.065,7.718-5.306,7.718l0,0
			l0,0c-2.17,3.376-2.17,3.858-2.17,4.341c0,0.241,0,0.725,0.241,2.412c-0.724,0.482-1.93,0.965-2.171,1.206
			c-0.241,0.241-0.724,0.482-2.412,4.1l0,0l0,0c0,0-1.93,5.065-3.859,8.441c-0.724,1.206-1.206,2.171-1.688,3.377
			c-1.206,2.411-1.929,4.341-3.859,5.306c-0.482,0.241-0.964,0.482-1.447,0.725c-1.447,0.724-1.93,0.965-2.171,1.688
			c0,0.482,0,0.966,0.482,1.447l0,0l0,0c0.241,0.241,3.135,2.896,5.306,4.342c1.929,1.205,2.653,1.205,3.135,1.205h0.241l0,0
			c0.965,0,1.688-0.723,2.412-1.929c0.482-0.725,4.1-7.235,11.094-19.536c0.241,0,0.482,0.241,0.724,0.241
			c0.241,0.481,0.724,0.724,1.206,0.965s0.964,0.482,1.447,0.482c0.241,0.481,0.724,0.724,1.206,0.965s0.964,0.481,1.688,0.481
			c0.241,0.482,0.724,0.966,1.206,1.206c0.482,0.241,0.965,0.482,1.447,0.482c0.241,0.481,0.723,0.724,1.206,0.965
			c0.483,0.241,0.965,0.482,1.447,0.482c0.241,0.48,0.724,0.723,1.206,0.964c0.482,0.241,0.965,0.481,1.688,0.481
			c0.241,0.482,0.724,0.965,1.206,1.206s0.964,0.482,1.447,0.482c0.241,0.481,0.724,0.724,1.206,0.965s0.965,0.481,1.447,0.481
			c0.241,0.482,0.724,0.725,1.206,0.966s0.965,0.481,1.688,0.481c0.241,0.482,0.724,0.964,1.206,1.205
			c0.241,0,0.241,0.241,0.482,0.241c0.724,1.447,2.17,2.653,3.618,3.618c1.447,0.724,2.894,1.206,4.583,1.206
			c2.894,0,5.306-1.447,6.753-3.618c0.965-1.688,1.206-3.617,0.724-5.547c-0.724-2.171-2.171-4.101-4.341-5.307
			c-1.447-0.724-2.895-1.205-4.583-1.205c-0.241,0-0.241,0-0.482,0l-0.241-0.241c-0.482-0.241-0.965-0.482-1.688-0.482
			c-0.241-0.481-0.724-0.965-1.206-1.206s-0.965-0.481-1.447-0.481c-0.241-0.482-0.724-0.725-1.206-0.966
			c-0.481-0.24-0.965-0.48-1.447-0.48c-0.241-0.482-0.724-0.725-1.206-0.965c-0.482-0.241-0.965-0.482-1.688-0.482
			c-0.241-0.481-0.724-0.965-1.206-1.206c-0.482-0.241-0.965-0.481-1.447-0.481c-0.241-0.482-0.724-0.725-1.206-0.966
			c-0.482-0.24-0.964-0.481-1.447-0.481c-0.241-0.482-0.724-0.725-1.206-0.965c-0.482-0.241-0.965-0.482-1.688-0.482
			c-0.241-0.48-0.724-0.964-1.206-1.205s-0.965-0.481-1.447-0.481c-0.241-0.482-0.723-0.725-1.206-0.966
			c-0.483-0.24-0.965-0.481-1.447-0.481c-0.241-0.241-0.241-0.482-0.482-0.724c4.824-8.925,10.612-18.812,11.094-19.776
			c0.965-1.688,0.724-2.896,0.241-3.377c-0.241-0.725-1.206-1.447-2.894-2.17c-2.412-1.206-6.271-2.171-6.512-2.412h-0.241h-0.241
			H206.931L206.931,821.29L206.931,821.29z"/>
	</g>
</g>
<polygon fill="#E7BB4B" points="89.236,541.765 33.042,576.253 34.971,726.024 64.877,766.784 131.924,790.66 165.448,783.666 
	211.754,766.543 241.901,723.854 241.901,576.253 185.225,541.041 136.266,551.412 "/>
<path fill="#070809" d="M138.677,779.325l-66.806-24.842l-23.877-30.63V583.488l44.377-29.665l46.065,10.371l46.065-10.854
	l0.241,0.24l45.101,29.906v140.365l-0.241,0.241l-28.459,30.146h-0.241L138.677,779.325z M73.077,752.795l65.6,24.359l61.5-24.359
	l27.977-29.423V584.453l-43.895-28.941l-45.824,10.612h-0.241l-45.583-10.371l-42.93,28.7v138.678L73.077,752.795z"/>
<path fill="#070809" d="M138.436,759.549l-55.953-22.43V579.871l55.712,12.059l55.954-11.576v156.283L138.436,759.549z
	 M88.271,733.019l50.165,20.26l50.165-20.26V587.348l-50.165,10.37l-49.924-11.094V733.02L88.271,733.019L88.271,733.019z"/>
<path fill="#070809" d="M192.46,700.46v-30.389l37.624-48.959v30.389L192.46,700.46z M194.389,670.795v23.877l33.765-43.895V626.9
	L194.389,670.795z"/>
<path fill="#181818" d="M138.436,797.172L62.465,770.16l-30.871-39.553V574.324l60.536-38.83l46.306,12.059l46.065-11.816
	l61.018,38.589v156.283l-31.353,39.069L138.436,797.172z M67.289,763.648l71.389,25.322l70.906-25.806l28.7-35.212v-149.53
	l-53.542-34.971l-46.065,11.817l-46.065-12.06l-53.059,34.971v149.771L67.289,763.648z"/>
<path fill="#070809" d="M84.171,700.46l-36.417-48.959v-30.389l36.417,48.959V700.46z M49.683,650.777l32.559,43.895v-23.877
	L49.683,626.9V650.777z"/>
<polygon points="171.478,718.065 157.489,730.366 119.624,730.366 105.636,718.065 105.636,699.013 127.583,699.013 127.583,708.66 
	149.53,708.66 149.53,682.13 119.624,682.13 105.636,669.589 105.636,624.248 119.624,611.706 157.489,611.706 171.478,624.248 
	171.478,642.577 149.53,642.577 149.53,633.653 127.583,633.653 127.583,660.184 157.489,660.184 171.478,672.483 "/>
<g>
	<path fill="#FFFFFF" d="M307.502,801.755c0-0.241,0-0.481,0.241-0.481c0-0.241,0.241-0.241,0.481-0.241h2.895
		c0.481,0,0.724,0.241,0.724,0.724v0.482c0,0.964,0.241,1.688,0.482,2.17c0.241,0.724,0.724,1.206,1.446,1.688
		c0.482,0.482,1.207,0.725,1.931,1.206c0.724,0.241,1.688,0.482,2.411,0.482c0.723,0,1.446-0.241,2.171-0.482
		c0.724-0.241,1.206-0.481,1.93-0.965c0.482-0.482,0.965-0.965,1.206-1.447c0.241-0.481,0.482-1.206,0.482-1.929
		c0-0.724-0.241-1.447-0.482-1.93c-0.241-0.725-0.724-1.206-1.447-1.688c-0.723-0.481-1.446-1.206-2.412-1.688
		c-0.965-0.482-2.171-1.206-3.376-1.931c-1.206-0.723-2.411-1.205-3.377-1.929c-0.965-0.724-1.93-1.206-2.652-2.171
		c-0.724-0.725-1.446-1.688-1.688-2.653c-0.481-0.964-0.724-1.929-0.724-3.376c0-1.688,0.241-2.895,0.965-4.1
		c0.724-1.206,1.446-2.171,2.411-2.896c0.965-0.724,1.93-1.206,3.136-1.688c1.206-0.482,2.411-0.482,3.376-0.482
		c1.688,0,3.136,0.241,4.342,0.725c1.206,0.482,2.412,1.206,3.136,2.171c0.965,0.965,1.446,1.93,1.93,3.135
		c0.481,1.206,0.724,2.171,0.724,3.377v0.482c0,0.24,0,0.481-0.24,0.724c-0.241,0.242-0.241,0.241-0.482,0.241h-2.895
		c-0.24,0-0.481,0-0.481-0.241c-0.241,0-0.241-0.241-0.241-0.482v-0.481c0-0.725-0.241-1.447-0.481-2.171
		c-0.241-0.725-0.725-1.206-1.206-1.688c-0.482-0.481-1.206-0.964-1.688-1.205c-0.724-0.24-1.447-0.481-2.171-0.481
		s-1.205,0-1.929,0.241c-0.725,0.24-1.206,0.481-1.931,0.964c-0.481,0.481-0.965,0.965-1.446,1.446
		c-0.241,0.725-0.482,1.447-0.482,2.172c0,0.724,0.241,1.446,0.482,1.93c0.241,0.482,0.724,1.206,1.446,1.688
		c0.482,0.482,1.206,0.966,1.931,1.447c0.724,0.482,1.446,0.725,2.17,1.206c1.688,0.965,3.136,1.688,4.583,2.412
		c1.206,0.724,2.411,1.688,3.135,2.411c0.725,0.965,1.447,1.688,1.688,2.652c0.481,0.966,0.481,2.172,0.481,3.378
		c0,1.204-0.241,2.41-0.724,3.616c-0.483,1.206-1.206,2.172-2.171,2.896s-1.93,1.446-3.376,1.929
		c-1.206,0.482-2.653,0.725-4.102,0.725c-1.688,0-3.135-0.241-4.341-0.725c-1.206-0.482-2.412-1.205-3.376-2.17
		c-0.965-0.965-1.688-1.93-2.171-3.136C307.743,804.648,307.502,803.442,307.502,801.755L307.502,801.755z"/>
	<path fill="#FFFFFF" d="M342.714,800.79c0,0.724,0.241,1.688,0.482,2.411s0.724,1.447,1.206,2.171
		c0.481,0.724,1.205,1.206,1.929,1.688c0.724,0.482,1.688,0.482,2.653,0.482c0.965,0,1.93-0.241,2.652-0.724
		c0.724-0.483,1.446-0.966,1.93-1.688c0.482-0.723,0.965-1.447,1.205-2.171c0.241-0.723,0.482-1.688,0.482-2.411v-22.671
		c0-0.241,0-0.482,0.241-0.724c0.241-0.242,0.241-0.241,0.481-0.241h2.896c0.241,0,0.481,0,0.481,0.241
		c0.241,0.24,0.241,0.481,0.241,0.724v22.43c0,1.447-0.241,3.136-0.724,4.342c-0.482,1.446-1.206,2.652-2.171,3.617
		s-1.931,1.93-3.376,2.411c-1.447,0.725-2.896,0.965-4.583,0.965c-1.688,0-3.136-0.24-4.582-0.965
		c-1.447-0.723-2.412-1.446-3.377-2.411c-0.966-0.965-1.688-2.171-2.17-3.617c-0.482-1.447-0.725-2.895-0.725-4.342v-22.671
		c0-0.241,0-0.481,0.241-0.724s0.241-0.241,0.482-0.241h3.135c0.241,0,0.481,0,0.481,0.241s0.241,0.481,0.241,0.724v23.153
		L342.714,800.79L342.714,800.79z"/>
	<path fill="#FFFFFF" d="M385.402,801.755c0-0.241,0-0.481,0.24-0.481c0-0.241,0.241-0.241,0.482-0.241h2.895
		c0.481,0,0.724,0.241,0.724,0.724v0.482c0,0.964,0.241,1.688,0.481,2.17c0.241,0.724,0.725,1.206,1.447,1.688
		c0.482,0.482,1.206,0.725,1.93,1.206c0.725,0.241,1.688,0.482,2.411,0.482c0.725,0,1.447-0.241,2.171-0.482
		c0.725-0.241,1.206-0.481,1.931-0.965c0.481-0.482,0.965-0.965,1.206-1.447c0.24-0.481,0.481-1.206,0.481-1.929
		c0-0.724-0.241-1.447-0.481-1.93c-0.241-0.725-0.725-1.206-1.447-1.688c-0.723-0.481-1.447-1.206-2.412-1.688
		c-0.965-0.482-2.17-1.206-3.376-1.931c-1.206-0.723-2.412-1.205-3.377-1.929s-1.93-1.206-2.653-2.171
		c-0.723-0.725-1.445-1.688-1.688-2.653c-0.482-0.964-0.725-1.929-0.725-3.376c0-1.688,0.241-2.895,0.966-4.1
		c0.724-1.206,1.445-2.171,2.41-2.896c0.966-0.724,1.931-1.206,3.137-1.688c1.206-0.482,2.412-0.482,3.376-0.482
		c1.688,0,3.136,0.241,4.342,0.725c1.206,0.482,2.412,1.206,3.135,2.171c0.965,0.965,1.447,1.93,1.93,3.135
		c0.482,1.206,0.725,2.171,0.725,3.377v0.482c0,0.24,0,0.481-0.241,0.724s-0.241,0.241-0.481,0.241h-2.895
		c-0.241,0-0.482,0-0.482-0.241c-0.24,0-0.24-0.241-0.24-0.482v-0.481c0-0.725-0.241-1.447-0.482-2.171
		c-0.241-0.725-0.724-1.206-1.206-1.688c-0.481-0.481-1.206-0.964-1.688-1.205c-0.725-0.24-1.447-0.481-2.17-0.481
		c-0.725,0-1.206,0-1.931,0.241c-0.724,0.24-1.206,0.481-1.93,0.964c-0.482,0.481-0.965,0.965-1.447,1.446
		c-0.24,0.725-0.481,1.447-0.481,2.172c0,0.724,0.241,1.446,0.481,1.93c0.241,0.482,0.725,1.206,1.447,1.688
		c0.482,0.482,1.206,0.966,1.93,1.447c0.725,0.482,1.447,0.725,2.17,1.206c1.688,0.965,3.137,1.688,4.583,2.412
		c1.206,0.724,2.411,1.688,3.136,2.411c0.724,0.965,1.446,1.688,1.688,2.652c0.482,0.966,0.482,2.172,0.482,3.378
		c0,1.204-0.241,2.41-0.725,3.616c-0.482,1.206-1.206,2.172-2.171,2.896c-0.964,0.724-1.929,1.446-3.376,1.929
		c-1.206,0.482-2.652,0.725-4.101,0.725c-1.688,0-3.136-0.241-4.341-0.725c-1.206-0.482-2.412-1.205-3.376-2.17
		c-0.966-0.965-1.688-1.93-2.171-3.136C385.645,804.648,385.402,803.442,385.402,801.755L385.402,801.755z"/>
	<path fill="#FFFFFF" d="M416.756,777.878c0-0.481,0.24-0.965,0.723-0.965h15.918c0.241,0,0.482,0,0.482,0.241
		c0.241,0.24,0.241,0.24,0.241,0.481v2.653c0,0.241,0,0.482-0.241,0.482c-0.241,0.24-0.241,0.24-0.482,0.24h-12.3v10.37h9.647
		c0.24,0,0.481,0,0.481,0.241c0.24,0,0.24,0.241,0.24,0.724V795c0,0.241,0,0.482-0.24,0.482c-0.241,0.239-0.241,0.239-0.481,0.239
		h-9.647v11.096h12.3c0.241,0,0.482,0,0.482,0.24c0.241,0,0.241,0.241,0.241,0.482v2.652c0,0.24,0,0.481-0.241,0.481
		c-0.241,0.241-0.241,0.241-0.482,0.241h-16.157c-0.482,0-0.725-0.241-0.725-0.965v-32.076h0.241V777.878z"/>
	<path fill="#FFFFFF" d="M443.526,783.425c0.481-1.447,1.206-2.651,2.17-3.617c0.965-0.965,1.93-1.93,3.377-2.411
		c1.446-0.482,2.894-0.966,4.582-0.966c1.688,0,3.377,0.241,4.583,0.966c1.205,0.724,2.411,1.446,3.376,2.411
		c0.965,0.966,1.446,1.93,1.93,3.136s0.724,2.171,0.724,3.136v1.206c0,0.241,0,0.481-0.24,0.481c0,0.241-0.241,0.241-0.482,0.241
		h-3.136c-0.241,0-0.482,0-0.482-0.241c-0.241,0-0.241-0.24-0.241-0.481v-0.482c0-0.724-0.24-1.447-0.481-2.171
		s-0.724-1.447-1.205-1.93s-1.206-0.965-1.93-1.446c-0.725-0.241-1.688-0.481-2.653-0.481s-1.93,0.24-2.652,0.481
		c-0.724,0.241-1.446,0.964-1.93,1.446c-0.482,0.724-0.965,1.447-1.206,2.171c-0.241,0.965-0.481,1.688-0.481,2.653v12.781
		c0,0.966,0.24,1.931,0.481,2.895c0.241,0.965,0.724,1.688,1.206,2.171c0.482,0.724,1.206,1.206,1.93,1.447
		c0.724,0.481,1.688,0.481,2.652,0.481s1.688-0.241,2.412-0.481c0.724-0.241,1.447-0.725,1.93-1.206
		c0.483-0.482,0.965-1.206,1.205-1.931c0.241-0.723,0.482-1.445,0.482-2.17v-3.377h-3.858c-0.481,0-0.724-0.24-0.724-0.724v-2.411
		c0-0.482,0.24-0.724,0.724-0.724h7.478c0.481,0,0.724,0.241,0.724,0.965v6.271c0,1.446-0.241,2.895-0.724,4.101
		c-0.483,1.206-1.206,2.412-2.172,3.136c-0.965,0.965-2.17,1.688-3.376,2.17s-2.652,0.724-4.342,0.724
		c-1.688,0-3.135-0.24-4.341-0.965c-1.206-0.481-2.412-1.445-3.377-2.411c-0.965-0.965-1.688-2.171-2.17-3.617
		c-0.482-1.447-0.725-2.895-0.725-4.582v-12.301C442.803,786.319,443.044,784.872,443.526,783.425z"/>
	<path fill="#FFFFFF" d="M479.462,800.79c0,0.724,0.241,1.688,0.482,2.411c0.24,0.724,0.724,1.447,1.205,2.171
		s1.206,1.206,1.93,1.688c0.724,0.482,1.688,0.482,2.653,0.482c0.965,0,1.93-0.241,2.651-0.724c0.725-0.482,1.447-0.966,1.931-1.688
		c0.482-0.723,0.965-1.447,1.205-2.171c0.241-0.723,0.482-1.688,0.482-2.411v-22.671c0-0.241,0-0.482,0.241-0.724
		c0.241-0.242,0.241-0.241,0.481-0.241h2.895c0.241,0,0.481,0,0.481,0.241c0.241,0.24,0.241,0.481,0.241,0.724v22.43
		c0,1.447-0.241,3.136-0.724,4.342c-0.481,1.446-1.205,2.652-2.17,3.617c-0.966,0.965-1.931,1.93-3.377,2.411
		c-1.447,0.725-2.895,0.965-4.582,0.965c-1.688,0-3.137-0.24-4.582-0.965c-1.447-0.723-2.412-1.446-3.377-2.411
		c-0.966-0.965-1.688-2.171-2.171-3.617c-0.483-1.447-0.724-2.895-0.724-4.342v-22.671c0-0.241,0-0.481,0.24-0.724
		c0.241-0.241,0.241-0.241,0.481-0.241h3.137c0.241,0,0.481,0,0.481,0.241s0.241,0.481,0.241,0.724v23.153L479.462,800.79
		L479.462,800.79z"/>
	<path fill="#FFFFFF" d="M508.645,777.878c0-0.481,0.241-0.965,0.724-0.965h10.371c1.446,0,2.652,0.241,3.616,0.724
		c1.206,0.482,2.172,1.206,2.896,1.931c0.724,0.724,1.447,1.688,1.93,2.894s0.725,2.412,0.725,3.618v2.894
		c0,0.965,0,1.688-0.241,2.653c-0.241,0.724-0.482,1.447-0.965,2.171c-0.483,0.724-0.965,1.206-1.447,1.929
		c-0.482,0.482-1.206,0.966-1.688,1.447l0.482,0.724l4.101,12.301c0,0.24,0,0.481,0,0.724s-0.24,0.241-0.481,0.241h-3.377
		c-0.241,0-0.241,0-0.482-0.241c-0.241,0-0.241-0.241-0.241-0.481l-3.616-11.817c-0.241,0-0.241,0-0.482,0s-0.241,0-0.481,0h-6.513
		v11.576c0,0.481-0.241,0.965-0.724,0.965h-2.896c-0.481,0-0.723-0.241-0.723-0.965v-32.317h-0.485V777.878z M513.227,781.255
		v13.265h6.271c0.724,0,1.447-0.24,2.171-0.481s1.206-0.724,1.447-1.206c0.481-0.482,0.723-0.965,0.964-1.688
		c0.241-0.724,0.241-1.206,0.241-1.931v-3.135c0-0.724,0-1.447-0.241-1.93c-0.241-0.725-0.481-1.206-0.964-1.688
		c-0.483-0.481-0.965-0.724-1.688-1.205c-0.724-0.241-1.206-0.481-1.93-0.481h-6.271V781.255L513.227,781.255z"/>
	<path fill="#FFFFFF" d="M540.238,777.878c0-0.481,0.24-0.965,0.724-0.965h2.896c0.481,0,0.724,0.241,0.724,0.965v32.317
		c0,0.481-0.241,0.965-0.724,0.965h-2.896c-0.481,0-0.724-0.241-0.724-0.965V777.878z"/>
	<path fill="#FFFFFF" d="M567.732,777.154c1.688,0,3.136,0.24,4.342,0.724c1.447,0.482,2.651,1.206,3.617,2.171
		c0.965,0.965,1.688,2.17,2.411,3.376c0.482,1.447,0.966,2.896,0.966,4.342v12.06c0,1.688-0.241,3.136-0.966,4.341
		c-0.481,1.447-1.446,2.412-2.411,3.377c-0.966,0.965-2.17,1.688-3.617,2.171c-1.447,0.481-2.896,0.725-4.342,0.725h-9.164
		c-0.482,0-0.725-0.241-0.725-0.966v-32.317c0-0.482,0.241-0.965,0.725-0.965h9.164V777.154z M567.491,807.061
		c0.965,0,1.93-0.24,2.653-0.481c0.723-0.241,1.446-0.965,2.171-1.447c0.724-0.724,1.206-1.447,1.445-2.17
		c0.241-0.724,0.482-1.688,0.482-2.653V788.25c0-0.965-0.241-1.93-0.482-2.653c-0.239-0.724-0.723-1.446-1.445-2.171
		c-0.725-0.481-1.206-0.965-2.171-1.447c-0.725-0.24-1.688-0.48-2.653-0.48h-5.547v25.563L567.491,807.061L567.491,807.061z"/>
	<path fill="#FFFFFF" d="M609.697,810.195c0,0.24,0,0.481,0,0.724c-0.241,0.241-0.241,0.241-0.482,0.241h-3.135
		c-0.241,0-0.241,0-0.482-0.241c-0.24,0-0.24-0.241-0.481-0.481l-1.688-6.271h-10.61l-1.688,6.271c0,0.24-0.241,0.481-0.481,0.481
		c-0.241,0-0.241,0.241-0.482,0.241h-3.135c-0.241,0-0.482,0-0.482-0.241s-0.241-0.481,0-0.724l9.405-32.56
		c0-0.241,0.241-0.481,0.241-0.481c0.241,0,0.241-0.241,0.481-0.241h2.653c0.241,0,0.482,0,0.482,0.241
		c0.24,0,0.24,0.24,0.481,0.481L609.697,810.195z M593.78,800.308h8.439l-3.857-14.952l-0.482-2.653l-0.481,2.653L593.78,800.308z"
		/>
	<path fill="#FFFFFF" d="M629.475,777.154c1.688,0,3.136,0.24,4.342,0.724c1.446,0.482,2.652,1.206,3.617,2.171
		s1.688,2.17,2.411,3.376c0.482,1.447,0.965,2.896,0.965,4.342v12.06c0,1.688-0.24,3.136-0.965,4.341
		c-0.481,1.447-1.446,2.412-2.411,3.377s-2.171,1.688-3.617,2.171c-1.447,0.481-2.896,0.725-4.342,0.725h-9.165
		c-0.481,0-0.724-0.241-0.724-0.966v-32.317c0-0.482,0.241-0.965,0.724-0.965h9.165V777.154z M629.233,807.061
		c0.964,0,1.929-0.24,2.651-0.481s1.447-0.965,2.171-1.447c0.725-0.724,1.206-1.447,1.447-2.17c0.241-0.724,0.482-1.688,0.482-2.653
		V788.25c0-0.965-0.241-1.93-0.482-2.653c-0.241-0.723-0.724-1.446-1.447-2.171c-0.724-0.481-1.206-0.965-2.171-1.447
		c-0.724-0.24-1.688-0.48-2.651-0.48h-5.549v25.563L629.233,807.061L629.233,807.061z"/>
	<path fill="#FFFFFF" d="M667.098,777.878c0-0.481,0.241-0.965,0.725-0.965h15.918c0.241,0,0.481,0,0.481,0.241
		c0.241,0.24,0.241,0.24,0.241,0.481v2.653c0,0.241,0,0.482-0.241,0.482c-0.24,0.24-0.24,0.24-0.481,0.24h-12.3v10.37h9.646
		c0.241,0,0.482,0,0.482,0.241c0.24,0,0.24,0.241,0.24,0.724V795c0,0.241,0,0.482-0.24,0.482c-0.241,0.239-0.241,0.239-0.482,0.239
		h-9.646v11.096h12.3c0.241,0,0.481,0,0.481,0.24c0.241,0,0.241,0.241,0.241,0.482v2.652c0,0.24,0,0.481-0.241,0.481
		c-0.24,0.241-0.24,0.241-0.481,0.241h-15.677c-0.482,0-0.725-0.241-0.725-0.965v-32.076h-0.241V777.878z"/>
	<path fill="#FFFFFF" d="M693.387,801.755c0-0.241,0-0.481,0.241-0.481c0-0.241,0.241-0.241,0.481-0.241h2.895
		c0.482,0,0.725,0.241,0.725,0.724v0.482c0,0.964,0.24,1.688,0.481,2.17c0.241,0.724,0.724,1.206,1.447,1.688
		c0.481,0.482,1.206,0.725,1.929,1.206c0.725,0.241,1.688,0.482,2.412,0.482c0.725,0,1.447-0.241,2.171-0.482
		s1.206-0.481,1.931-0.965c0.48-0.482,0.964-0.965,1.205-1.447c0.24-0.481,0.481-1.206,0.481-1.929c0-0.724-0.241-1.447-0.481-1.93
		c-0.241-0.725-0.725-1.206-1.446-1.688c-0.725-0.481-1.447-1.206-2.412-1.688c-0.965-0.482-2.171-1.206-3.377-1.931
		c-1.205-0.723-2.411-1.205-3.376-1.929s-1.93-1.206-2.653-2.171c-0.723-0.725-1.447-1.688-1.688-2.653
		c-0.481-0.964-0.724-1.929-0.724-3.376c0-1.688,0.241-2.895,0.964-4.1c0.725-1.206,1.447-2.171,2.412-2.896
		c0.965-0.724,1.93-1.206,3.137-1.688c1.205-0.482,2.41-0.482,3.375-0.482c1.688,0,3.137,0.241,4.343,0.725
		c1.204,0.481,2.411,1.206,3.135,2.171c0.965,0.965,1.447,1.93,1.93,3.135c0.482,1.206,0.724,2.171,0.724,3.377v0.482
		c0,0.24,0,0.481-0.24,0.724c-0.241,0.242-0.241,0.241-0.482,0.241h-2.895c-0.241,0-0.482,0-0.482-0.241
		c-0.241,0-0.241-0.241-0.241-0.482v-0.481c0-0.725-0.241-1.447-0.481-2.171c-0.241-0.725-0.725-1.206-1.206-1.688
		c-0.482-0.481-1.205-0.964-1.688-1.205c-0.724-0.24-1.447-0.481-2.171-0.481s-1.206,0-1.93,0.241
		c-0.724,0.24-1.206,0.481-1.929,0.964c-0.482,0.481-0.966,0.965-1.447,1.446c-0.241,0.725-0.482,1.447-0.482,2.172
		c0,0.724,0.241,1.446,0.482,1.93c0.24,0.482,0.723,1.206,1.447,1.688c0.481,0.482,1.205,0.966,1.929,1.447
		c0.724,0.482,1.447,0.725,2.171,1.206c1.688,0.965,3.135,1.688,4.582,2.412c1.206,0.724,2.412,1.688,3.136,2.411
		c0.724,0.965,1.446,1.688,1.688,2.652c0.481,0.966,0.481,2.172,0.481,3.378c0,1.204-0.241,2.41-0.724,3.616
		s-1.206,2.172-2.171,2.896c-0.966,0.724-1.931,1.446-3.377,1.929c-1.205,0.482-2.652,0.725-4.101,0.725
		c-1.688,0-3.135-0.241-4.342-0.725c-1.205-0.481-2.411-1.205-3.376-2.17s-1.688-1.93-2.171-3.136
		C693.628,804.648,693.387,803.442,693.387,801.755L693.387,801.755z"/>
	<path fill="#FFFFFF" d="M739.934,777.878c0-0.481,0.241-0.965,0.725-0.965h2.652c0.24,0,0.24,0,0.482,0.241
		c0.24,0,0.24,0.24,0.482,0.481l12.059,23.396l0.725,2.17l-0.241-2.411l-0.241-23.396c0-0.24,0-0.481,0.241-0.724
		s0.241-0.241,0.723-0.241h2.653c0.24,0,0.481,0,0.481,0.241c0.241,0.241,0.241,0.241,0.241,0.724v32.318
		c0,0.481-0.241,0.964-0.965,0.964h-2.652c-0.24,0-0.481,0-0.481-0.241c-0.241,0-0.241-0.24-0.482-0.48l-12.059-23.153l-0.966-2.412
		l0.24,2.412l0.242,22.912c0,0.481-0.242,0.964-0.724,0.964h-2.653c-0.482,0-0.724-0.241-0.724-0.964v-31.836H739.934
		L739.934,777.878z"/>
	<path fill="#FFFFFF" d="M778.04,800.79c0,0.724,0.241,1.688,0.481,2.411c0.241,0.724,0.725,1.447,1.207,2.171
		c0.481,0.724,1.204,1.206,1.929,1.688c0.724,0.482,1.688,0.482,2.653,0.482c0.965,0,1.93-0.241,2.651-0.724
		c0.726-0.482,1.447-0.966,1.93-1.688c0.483-0.723,0.966-1.447,1.206-2.171c0.241-0.723,0.482-1.688,0.482-2.411v-22.671
		c0-0.241,0-0.482,0.241-0.724c0.241-0.242,0.241-0.241,0.481-0.241h2.896c0.239,0,0.481,0,0.481,0.241
		c0.24,0.24,0.24,0.481,0.24,0.724v22.43c0,1.447-0.24,3.136-0.723,4.342c-0.482,1.446-1.206,2.652-2.172,3.617
		c-0.965,0.965-1.93,1.93-3.375,2.411c-1.447,0.725-2.896,0.965-4.584,0.965c-1.688,0-3.135-0.24-4.581-0.965
		c-1.447-0.723-2.412-1.446-3.378-2.411c-0.963-0.965-1.688-2.171-2.17-3.617c-0.481-1.447-0.724-2.895-0.724-4.342v-22.671
		c0-0.241,0-0.481,0.241-0.724s0.241-0.241,0.482-0.241h3.135c0.24,0,0.481,0,0.481,0.241s0.241,0.481,0.241,0.724v23.153
		L778.04,800.79L778.04,800.79z"/>
	<path fill="#FFFFFF" d="M807.464,777.878c0-0.481,0.241-0.965,0.724-0.965h15.918c0.24,0,0.481,0,0.481,0.241
		c0.241,0.24,0.241,0.24,0.241,0.481v2.653c0,0.241,0,0.482-0.241,0.482c-0.241,0.24-0.241,0.24-0.481,0.24h-12.301v10.37h9.647
		c0.241,0,0.48,0,0.48,0.241c0.242,0,0.242,0.241,0.242,0.724V795c0,0.241,0,0.482-0.242,0.482c-0.239,0.239-0.239,0.239-0.48,0.239
		h-9.647v11.096h12.301c0.24,0,0.481,0,0.481,0.24c0.241,0,0.241,0.241,0.241,0.482v2.652c0,0.24,0,0.481-0.241,0.481
		c-0.241,0.241-0.241,0.241-0.481,0.241h-16.159c-0.482,0-0.724-0.241-0.724-0.965v-32.076h0.241V777.878z"/>
	<path fill="#FFFFFF" d="M833.511,801.755c0-0.241,0-0.481,0.241-0.481c0-0.241,0.241-0.241,0.482-0.241h2.895
		c0.482,0,0.723,0.241,0.723,0.724v0.482c0,0.964,0.241,1.688,0.482,2.17c0.241,0.724,0.725,1.206,1.447,1.688
		c0.481,0.482,1.206,0.725,1.93,1.206c0.725,0.241,1.688,0.482,2.412,0.482c0.723,0,1.446-0.241,2.17-0.482
		c0.725-0.241,1.206-0.481,1.93-0.965c0.482-0.482,0.965-0.965,1.206-1.447c0.241-0.481,0.482-1.206,0.482-1.929
		c0-0.724-0.241-1.447-0.482-1.93c-0.241-0.725-0.724-1.206-1.446-1.688c-0.724-0.481-1.447-1.206-2.412-1.688
		c-0.965-0.482-2.17-1.206-3.376-1.931c-1.206-0.723-2.412-1.205-3.377-1.929c-0.966-0.724-1.931-1.206-2.652-2.171
		c-0.724-0.725-1.447-1.688-1.688-2.653c-0.481-0.964-0.724-1.929-0.724-3.376c0-1.688,0.241-2.895,0.965-4.1
		c0.725-1.206,1.447-2.171,2.412-2.896c0.964-0.724,1.929-1.206,3.136-1.688c1.205-0.482,2.411-0.482,3.377-0.482
		c1.688,0,3.135,0.241,4.341,0.725c1.206,0.482,2.411,1.206,3.136,2.171c0.964,0.965,1.446,1.93,1.929,3.135
		c0.482,1.206,0.725,2.171,0.725,3.377v0.482c0,0.24,0,0.481-0.241,0.724s-0.241,0.241-0.482,0.241h-2.894
		c-0.242,0-0.482,0-0.482-0.241c-0.241,0-0.241-0.241-0.241-0.482v-0.481c0-0.725-0.24-1.447-0.482-2.171
		c-0.24-0.725-0.723-1.206-1.205-1.688c-0.482-0.481-1.206-0.964-1.688-1.205c-0.725-0.24-1.447-0.481-2.172-0.481
		c-0.724,0-1.206,0-1.93,0.241c-0.723,0.24-1.205,0.481-1.929,0.964c-0.482,0.481-0.966,0.965-1.447,1.446
		c-0.241,0.725-0.482,1.447-0.482,2.172c0,0.724,0.241,1.446,0.482,1.93c0.241,0.482,0.724,1.206,1.447,1.688
		c0.481,0.482,1.206,0.966,1.929,1.447c0.724,0.482,1.447,0.725,2.171,1.206c1.688,0.965,3.136,1.688,4.583,2.412
		c1.205,0.724,2.411,1.688,3.135,2.411c0.725,0.965,1.447,1.688,1.688,2.652c0.481,0.966,0.481,2.172,0.481,3.378
		c0,1.204-0.24,2.41-0.724,3.616s-1.206,2.172-2.171,2.896c-0.964,0.724-1.929,1.446-3.376,1.929
		c-1.206,0.482-2.653,0.725-4.101,0.725c-1.688,0-3.136-0.241-4.342-0.725c-1.206-0.482-2.412-1.205-3.377-2.17
		s-1.688-1.93-2.17-3.136C833.752,804.648,833.511,803.442,833.511,801.755L833.511,801.755z"/>
	<path fill="#FFFFFF" d="M861.246,777.878c0-0.241,0-0.481,0.241-0.724s0.241-0.241,0.481-0.241h19.535c0.241,0,0.482,0,0.482,0.241
		c0.24,0.24,0.24,0.24,0.24,0.724v2.653c0,0.241,0,0.481-0.24,0.481c-0.241,0-0.241,0.24-0.482,0.24h-7.477v29.183
		c0,0.241,0,0.482-0.241,0.725s-0.241,0.241-0.482,0.241h-3.135c-0.241,0-0.481,0-0.481-0.241c-0.241-0.241-0.241-0.241-0.241-0.725
		v-29.182h-7.478c-0.241,0-0.481,0-0.481-0.241c-0.241,0-0.241-0.241-0.241-0.481V777.878L861.246,777.878z"/>
	<path fill="#FFFFFF" d="M891.635,777.878c0-0.481,0.241-0.965,0.725-0.965h10.369c1.447,0,2.653,0.241,3.618,0.724
		c1.206,0.482,2.17,1.206,2.895,1.931c0.724,0.724,1.446,1.688,1.93,2.894c0.482,1.206,0.724,2.412,0.724,3.618v2.894
		c0,0.965,0,1.688-0.24,2.653c-0.241,0.724-0.482,1.447-0.965,2.171c-0.483,0.724-0.966,1.206-1.447,1.929
		c-0.482,0.482-1.205,0.966-1.688,1.447l0.482,0.724l4.1,12.301c0,0.24,0,0.481,0,0.724s-0.241,0.241-0.481,0.241h-3.377
		c-0.24,0-0.24,0-0.482-0.241c-0.24,0-0.24-0.241-0.24-0.481l-3.618-11.817c-0.241,0-0.241,0-0.481,0c-0.241,0-0.241,0-0.482,0
		h-6.512v11.576c0,0.481-0.241,0.965-0.725,0.965h-2.895c-0.482,0-0.723-0.241-0.723-0.965v-32.317h-0.484V777.878z
		 M896.217,781.255v13.265h6.271c0.724,0,1.447-0.24,2.171-0.481s1.206-0.724,1.446-1.206c0.482-0.482,0.725-0.965,0.966-1.688
		c0.241-0.724,0.241-1.206,0.241-1.931v-3.135c0-0.724,0-1.447-0.241-1.93c-0.241-0.725-0.482-1.206-0.966-1.688
		c-0.482-0.481-0.965-0.724-1.688-1.205c-0.724-0.241-1.206-0.481-1.93-0.481h-6.271V781.255z"/>
	<path fill="#FFFFFF" d="M921.782,788.008c0-1.688,0.241-3.136,0.724-4.583c0.483-1.447,1.205-2.651,1.93-3.617
		c0.965-0.965,1.93-1.93,3.377-2.411c1.445-0.725,2.894-0.966,4.582-0.966c1.688,0,3.375,0.241,4.581,0.966
		c1.447,0.724,2.412,1.446,3.378,2.411c0.965,0.966,1.688,2.17,2.17,3.617c0.483,1.447,0.724,2.896,0.724,4.583v12.06
		c0,1.688-0.24,3.135-0.724,4.582c-0.482,1.446-1.205,2.652-2.17,3.617c-0.966,0.966-1.931,1.93-3.378,2.411
		c-1.445,0.482-2.894,0.965-4.581,0.965c-1.688,0-3.377-0.24-4.582-0.965c-1.447-0.723-2.412-1.445-3.377-2.411
		c-0.966-0.965-1.688-2.171-2.172-3.617c-0.482-1.447-0.723-2.895-0.723-4.582v-12.06H921.782z M926.123,800.549
		c0,0.965,0.241,1.93,0.482,2.895c0.24,0.965,0.724,1.688,1.205,2.171c0.482,0.724,1.206,1.206,1.93,1.446
		c0.724,0.482,1.688,0.482,2.652,0.482c0.966,0,1.931-0.241,2.653-0.482c0.724-0.481,1.447-0.965,1.931-1.446
		c0.481-0.725,0.963-1.447,1.204-2.171c0.241-0.965,0.482-1.688,0.482-2.652v-12.782c0-0.965-0.241-1.93-0.482-2.652
		c-0.241-0.966-0.723-1.688-1.204-2.172c-0.482-0.724-1.207-1.206-1.931-1.446c-0.724-0.481-1.688-0.481-2.653-0.481
		c-0.965,0-1.93,0.241-2.652,0.481c-0.724,0.481-1.446,0.965-1.93,1.446c-0.481,0.725-0.965,1.447-1.205,2.172
		c-0.241,0.965-0.482,1.688-0.482,2.652V800.549z"/>
	<path fill="#FFFFFF" d="M969.053,783.425c0.482-1.447,1.206-2.651,2.17-3.617c0.965-0.965,1.931-1.93,3.377-2.411
		c1.447-0.482,2.896-0.966,4.582-0.966c1.206,0,2.172,0.241,3.137,0.482s1.93,0.724,2.652,1.206c0.724,0.481,1.447,0.965,1.93,1.688
		c0.481,0.725,0.965,1.206,1.446,1.93c0.482,0.724,0.725,1.446,0.966,2.171c0.24,0.724,0.24,1.446,0.24,2.171v0.965
		c0,0.241,0,0.482-0.24,0.482c0,0.24-0.241,0.24-0.482,0.24h-3.136c-0.482,0-0.724-0.24-0.724-0.724v-0.481
		c0-0.725-0.24-1.447-0.481-2.172c-0.241-0.724-0.725-1.446-1.206-1.93c-0.482-0.482-1.206-0.964-1.93-1.206
		c-0.725-0.24-1.688-0.48-2.653-0.48c-0.964,0-1.929,0.24-2.652,0.48c-0.724,0.242-1.446,0.965-1.93,1.447
		c-0.482,0.724-0.965,1.447-1.206,2.171c-0.241,0.965-0.482,1.688-0.482,2.653v12.781c0,0.966,0.241,1.931,0.482,2.895
		c0.241,0.965,0.724,1.688,1.206,2.171c0.481,0.724,1.206,1.206,1.93,1.447c0.724,0.481,1.688,0.481,2.652,0.481
		c0.965,0,1.93-0.241,2.653-0.481c0.723-0.241,1.446-0.725,1.93-1.447c0.481-0.482,0.965-1.206,1.206-1.93
		c0.241-0.725,0.481-1.446,0.481-2.17v-0.725c0-0.241,0-0.481,0.241-0.481s0.241-0.241,0.481-0.241h3.136
		c0.241,0,0.481,0,0.481,0.241s0.241,0.481,0.241,0.724v0.482c0,1.445-0.241,2.651-0.724,4.1c-0.482,1.206-1.206,2.412-2.171,3.136
		c-0.964,0.965-2.17,1.688-3.376,2.17c-1.206,0.482-2.653,0.725-4.341,0.725c-1.688,0-3.137-0.241-4.343-0.966
		c-1.205-0.48-2.412-1.445-3.375-2.41c-0.966-0.966-1.688-2.172-2.172-3.618c-0.482-1.447-0.724-2.895-0.724-4.582v-12.3
		C968.329,786.319,968.57,784.872,969.053,783.425z"/>
	<path fill="#FFFFFF" d="M998.959,788.008c0-1.688,0.241-3.136,0.724-4.583c0.483-1.447,1.206-2.651,1.93-3.617
		c0.965-0.965,1.93-1.93,3.377-2.411c1.446-0.725,2.895-0.966,4.582-0.966s3.377,0.241,4.582,0.966
		c1.446,0.724,2.411,1.446,3.377,2.411c0.965,0.966,1.688,2.17,2.171,3.617c0.482,1.447,0.724,2.896,0.724,4.583v12.06
		c0,1.688-0.241,3.135-0.724,4.582c-0.483,1.446-1.206,2.652-2.171,3.617c-0.966,0.966-1.931,1.93-3.377,2.411
		c-1.446,0.725-2.895,0.965-4.582,0.965c-1.688,0-3.376-0.24-4.582-0.965c-1.447-0.723-2.412-1.445-3.377-2.411
		c-0.966-0.965-1.688-2.171-2.17-3.617c-0.482-1.447-0.725-2.895-0.725-4.582v-12.06H998.959z M1003.541,800.549
		c0,0.965,0.241,1.93,0.482,2.895c0.24,0.965,0.724,1.688,1.205,2.171c0.482,0.724,1.207,1.206,1.931,1.446
		c0.724,0.482,1.688,0.482,2.651,0.482c0.965,0,1.931-0.241,2.653-0.482c0.724-0.481,1.447-0.965,1.931-1.446
		c0.481-0.725,0.965-1.447,1.204-2.171c0.241-0.965,0.482-1.688,0.482-2.652v-12.782c0-0.965-0.241-1.93-0.482-2.652
		c-0.239-0.966-0.723-1.688-1.204-2.172c-0.482-0.724-1.207-1.206-1.931-1.446c-0.724-0.481-1.688-0.481-2.653-0.481
		c-0.965,0-1.929,0.241-2.651,0.481c-0.724,0.481-1.447,0.965-1.931,1.446c-0.481,0.725-0.965,1.447-1.205,2.172
		c-0.241,0.965-0.482,1.688-0.482,2.652V800.549z"/>
	<path fill="#FFFFFF" d="M1036.342,787.525l-0.965-3.137l0.241,3.137l0.241,22.91c0,0.482-0.241,0.966-0.725,0.966h-2.895
		c-0.241,0-0.482,0-0.482-0.241s-0.241-0.482-0.241-0.725v-32.559c0-0.241,0-0.482,0.241-0.482c0.241-0.24,0.241-0.24,0.482-0.24
		h3.377c0.24,0,0.24,0,0.481,0.24c0,0.241,0.241,0.241,0.241,0.482l7.959,20.982l0.481,1.93l0.481-1.93l7.959-20.741
		c0-0.241,0.241-0.482,0.241-0.482c0-0.241,0.241-0.241,0.482-0.241h3.377c0.24,0,0.481,0,0.481,0.241
		c0.241,0.241,0.241,0.241,0.241,0.482v32.559c0,0.482-0.241,0.965-0.724,0.965h-2.896c-0.481,0-0.724-0.24-0.724-0.965l0.24-22.911
		l0.241-2.895l-0.724,2.895l-6.753,17.605c0,0.241-0.241,0.481-0.241,0.481s-0.241,0.241-0.482,0.241h-2.17
		c-0.24,0-0.24,0-0.481-0.241c0,0-0.241-0.24-0.241-0.481L1036.342,787.525z"/>
	<path fill="#FFFFFF" d="M1071.071,777.878c0-0.481,0.241-0.965,0.724-0.965h10.37c1.447,0,2.653,0.241,3.618,0.724
		c1.205,0.482,2.17,1.206,2.894,1.931c0.725,0.724,1.447,1.688,1.931,2.894c0.481,1.206,0.724,2.412,0.724,3.618v3.857
		c0,1.206-0.241,2.412-0.724,3.618c-0.483,1.206-1.206,2.17-1.931,2.895c-0.724,0.965-1.688,1.446-2.894,1.93
		c-1.206,0.482-2.412,0.724-3.618,0.724h-6.512v10.612c0,0.481-0.241,0.964-0.725,0.964h-2.895c-0.482,0-0.724-0.241-0.724-0.964
		v-31.836L1071.071,777.878L1071.071,777.878z M1081.924,795.484c0.725,0,1.447-0.241,1.93-0.482
		c0.483-0.241,1.207-0.724,1.447-1.206c0.482-0.481,0.724-0.965,0.965-1.688c0.24-0.725,0.481-1.206,0.481-1.931v-3.857
		c0-0.725,0-1.447-0.241-1.931c-0.24-0.724-0.482-1.206-0.964-1.688c-0.482-0.482-0.965-0.724-1.447-1.205
		c-0.724-0.241-1.206-0.482-1.93-0.482h-6.512v13.988h6.271V795.484z"/>
	<path fill="#FFFFFF" d="M1101.459,777.878c0-0.481,0.241-0.965,0.724-0.965h10.371c1.447,0,2.652,0.241,3.617,0.724
		c1.206,0.482,2.171,1.206,2.896,1.931c0.724,0.724,1.446,1.688,1.93,2.894c0.48,1.206,0.724,2.412,0.724,3.618v2.894
		c0,0.965,0,1.688-0.241,2.653c-0.24,0.724-0.482,1.447-0.965,2.171c-0.481,0.724-0.965,1.206-1.446,1.929
		c-0.482,0.482-1.206,0.966-1.688,1.447l0.482,0.724l4.1,12.301c0,0.24,0,0.481,0,0.724s-0.24,0.241-0.482,0.241h-3.375
		c-0.241,0-0.241,0-0.482-0.241c-0.241,0-0.241-0.241-0.241-0.481l-3.617-11.817c-0.241,0-0.241,0-0.481,0c-0.241,0-0.241,0-0.482,0
		h-6.512v11.576c0,0.481-0.242,0.965-0.725,0.965h-2.895c-0.482,0-0.724-0.241-0.724-0.965v-32.317h-0.485V777.878z
		 M1106.042,781.255v13.265h6.271c0.725,0,1.447-0.24,2.171-0.481s1.206-0.724,1.446-1.206c0.482-0.482,0.725-0.965,0.965-1.688
		c0.241-0.724,0.241-1.206,0.241-1.931v-3.135c0-0.724,0-1.447-0.241-1.93c-0.24-0.725-0.481-1.206-0.965-1.688
		c-0.482-0.481-0.965-0.724-1.688-1.205c-0.725-0.241-1.206-0.481-1.93-0.481h-6.271L1106.042,781.255L1106.042,781.255z"/>
	<path fill="#FFFFFF" d="M1131.605,788.008c0-1.688,0.241-3.136,0.725-4.583c0.482-1.447,1.206-2.651,1.93-3.617
		c0.965-0.965,1.93-1.93,3.376-2.411c1.447-0.725,2.896-0.966,4.583-0.966c1.688,0,3.376,0.241,4.582,0.966
		c1.447,0.724,2.412,1.446,3.376,2.411c0.965,0.966,1.688,2.17,2.171,3.617c0.483,1.447,0.725,2.896,0.725,4.583v12.06
		c0,1.688-0.241,3.135-0.725,4.582c-0.482,1.446-1.206,2.652-2.171,3.617c-0.964,0.966-1.929,1.93-3.376,2.411
		c-1.447,0.725-2.895,0.965-4.582,0.965s-3.377-0.24-4.583-0.965c-1.446-0.723-2.411-1.445-3.376-2.411
		c-0.965-0.965-1.688-2.171-2.171-3.617c-0.483-1.447-0.724-2.895-0.724-4.582v-12.06H1131.605z M1135.947,800.549
		c0,0.965,0.242,1.93,0.481,2.895c0.242,0.965,0.725,1.688,1.206,2.171c0.482,0.724,1.206,1.206,1.931,1.446
		c0.724,0.482,1.688,0.482,2.652,0.482c0.966,0,1.93-0.241,2.652-0.482c0.724-0.481,1.447-0.965,1.93-1.446
		c0.482-0.725,0.966-1.447,1.206-2.171c0.241-0.965,0.482-1.688,0.482-2.652v-12.782c0-0.965-0.241-1.93-0.482-2.652
		c-0.24-0.966-0.724-1.688-1.206-2.172c-0.481-0.724-1.206-1.206-1.93-1.446c-0.724-0.481-1.688-0.481-2.652-0.481
		s-1.93,0.241-2.652,0.481c-0.725,0.481-1.447,0.965-1.931,1.446c-0.481,0.725-0.964,1.447-1.206,2.172
		c-0.239,0.965-0.481,1.688-0.481,2.652V800.549z"/>
	<path fill="#FFFFFF" d="M1168.989,787.525l-0.965-3.137l0.24,3.137l0.241,22.91c0,0.482-0.241,0.966-0.724,0.966h-2.896
		c-0.24,0-0.481,0-0.481-0.241s-0.24-0.482-0.24-0.725v-32.559c0-0.241,0-0.482,0.24-0.482c0.241-0.24,0.241-0.24,0.481-0.24h3.377
		c0.241,0,0.241,0,0.482,0.24c0,0.241,0.241,0.241,0.241,0.482l7.959,20.982l0.481,1.93l0.482-1.93l7.958-20.741
		c0-0.241,0.242-0.482,0.242-0.482c0-0.241,0.239-0.241,0.481-0.241h3.376c0.241,0,0.482,0,0.482,0.241
		c0.241,0.241,0.241,0.241,0.241,0.482v32.559c0,0.482-0.241,0.965-0.725,0.965h-2.895c-0.481,0-0.724-0.24-0.724-0.965
		l0.241-22.911l0.24-2.895l-0.723,2.895l-6.754,17.605c0,0.241-0.24,0.481-0.24,0.481s-0.241,0.241-0.482,0.241h-2.171
		c-0.241,0-0.241,0-0.482-0.241c0,0-0.241-0.24-0.241-0.481L1168.989,787.525z"/>
	<path fill="#FFFFFF" d="M1203.479,777.878c0-0.481,0.24-0.965,0.724-0.965h2.895c0.482,0,0.724,0.241,0.724,0.965v32.317
		c0,0.481-0.241,0.965-0.724,0.965h-2.895c-0.482,0-0.724-0.241-0.724-0.965V777.878z"/>
	<path fill="#FFFFFF" d="M1218.672,801.755c0-0.241,0-0.481,0.241-0.481c0-0.241,0.241-0.241,0.481-0.241h2.895
		c0.482,0,0.724,0.241,0.724,0.724v0.482c0,0.964,0.241,1.688,0.482,2.17c0.241,0.724,0.724,1.206,1.447,1.688
		c0.481,0.482,1.206,0.725,1.93,1.206c0.724,0.241,1.688,0.482,2.411,0.482c0.724,0,1.447-0.241,2.171-0.482
		s1.206-0.481,1.931-0.965c0.481-0.482,0.965-0.965,1.205-1.447c0.241-0.481,0.482-1.206,0.482-1.929
		c0-0.724-0.242-1.447-0.482-1.93c-0.24-0.725-0.724-1.206-1.446-1.688c-0.724-0.481-1.447-1.206-2.412-1.688
		c-0.965-0.482-2.171-1.206-3.376-1.931c-1.206-0.723-2.412-1.205-3.377-1.929s-1.93-1.206-2.653-2.171
		c-0.723-0.725-1.446-1.688-1.688-2.653c-0.482-0.964-0.725-1.929-0.725-3.376c0-1.688,0.241-2.895,0.966-4.1
		c0.724-1.206,1.445-2.171,2.41-2.896c0.965-0.724,1.931-1.206,3.137-1.688c1.205-0.482,2.41-0.482,3.376-0.482
		c1.688,0,3.136,0.241,4.342,0.725c1.205,0.481,2.411,1.206,3.135,2.171c0.965,0.965,1.447,1.93,1.931,3.135
		c0.481,1.206,0.724,2.171,0.724,3.377v0.482c0,0.24,0,0.481-0.241,0.724s-0.241,0.241-0.482,0.241h-2.895
		c-0.241,0-0.482,0-0.482-0.241c-0.24,0-0.24-0.241-0.24-0.482v-0.481c0-0.725-0.241-1.447-0.482-2.171
		c-0.241-0.725-0.724-1.206-1.206-1.688c-0.481-0.481-1.205-0.964-1.688-1.205c-0.724-0.24-1.446-0.481-2.171-0.481
		c-0.724,0-1.206,0-1.93,0.241c-0.724,0.24-1.206,0.481-1.929,0.964c-0.482,0.481-0.965,0.965-1.447,1.446
		c-0.241,0.725-0.482,1.447-0.482,2.172c0,0.724,0.241,1.446,0.482,1.93c0.241,0.482,0.724,1.206,1.447,1.688
		c0.481,0.482,1.205,0.966,1.929,1.447c0.724,0.482,1.447,0.725,2.171,1.206c1.688,0.965,3.136,1.688,4.582,2.412
		c1.206,0.724,2.412,1.688,3.136,2.411c0.725,0.965,1.447,1.688,1.688,2.652c0.482,0.966,0.482,2.172,0.482,3.378
		c0,1.204-0.241,2.41-0.725,3.616c-0.482,1.206-1.206,2.172-2.171,2.896s-1.93,1.446-3.377,1.929
		c-1.205,0.482-2.652,0.725-4.1,0.725c-1.688,0-3.136-0.241-4.341-0.725c-1.206-0.482-2.412-1.205-3.377-2.17
		c-0.966-0.965-1.688-1.93-2.172-3.136C1218.913,804.648,1218.672,803.442,1218.672,801.755L1218.672,801.755z"/>
	<path fill="#FFFFFF" d="M1248.337,788.008c0-1.688,0.241-3.136,0.724-4.583c0.483-1.447,1.205-2.651,1.93-3.617
		c0.965-0.965,1.93-1.93,3.377-2.411c1.445-0.725,2.894-0.966,4.582-0.966c1.688,0,3.377,0.241,4.583,0.966
		c1.446,0.724,2.411,1.446,3.376,2.411c0.965,0.966,1.688,2.17,2.171,3.617s0.724,2.896,0.724,4.583v12.06
		c0,1.688-0.24,3.135-0.724,4.582c-0.483,1.446-1.206,2.652-2.171,3.617c-0.965,0.966-1.93,1.93-3.376,2.411
		c-1.447,0.725-2.896,0.965-4.583,0.965c-1.688,0-3.376-0.24-4.582-0.965c-1.447-0.723-2.412-1.445-3.377-2.411
		c-0.965-0.965-1.688-2.171-2.171-3.617c-0.483-1.447-0.724-2.895-0.724-4.582v-12.06H1248.337z M1252.919,800.549
		c0,0.965,0.241,1.93,0.482,2.895c0.24,0.965,0.724,1.688,1.206,2.171c0.481,0.724,1.206,1.206,1.93,1.446
		c0.723,0.482,1.688,0.482,2.652,0.482c0.964,0,1.93-0.241,2.652-0.482c0.725-0.481,1.446-0.965,1.93-1.446
		c0.481-0.725,0.965-1.447,1.205-2.171c0.241-0.965,0.482-1.688,0.482-2.652v-12.782c0-0.965-0.241-1.93-0.482-2.652
		c-0.24-0.966-0.724-1.688-1.205-2.172c-0.482-0.724-1.205-1.206-1.93-1.446c-0.724-0.481-1.688-0.481-2.652-0.481
		s-1.931,0.241-2.652,0.481c-0.724,0.481-1.447,0.965-1.93,1.446c-0.482,0.725-0.965,1.447-1.206,2.172
		c-0.241,0.965-0.482,1.688-0.482,2.652V800.549z"/>
</g>
<g>
	<path fill="#FFFFFF" d="M308.226,761.236v-28.459h39.07c2.653,0,4.102-0.965,4.102-3.136v-27.977c0-2.171-0.482-3.377-1.447-3.859
		c-0.965-0.481-2.653-0.724-5.064-0.724H327.28c-2.412,0-4.823-0.241-7.235-0.482c-2.171-0.24-4.341-1.205-6.029-2.41
		c-1.93-1.206-3.136-3.137-4.342-5.308c-0.964-2.17-1.445-5.306-1.445-9.164v-51.854c0-6.029,1.929-10.854,5.547-14.472
		c3.617-3.616,9.646-5.306,17.604-5.306h53.301l-0.24,28.459h-38.589c-2.895,0-4.342,1.206-4.342,3.376V667.9
		c0,1.446,0.482,2.652,1.206,3.136c0.965,0.481,2.171,0.965,3.858,0.965h21.465c5.547,0,9.646,1.206,12.541,3.376
		c2.895,2.412,4.342,6.271,4.342,12.061v50.405c0,8.44-1.93,14.472-5.788,17.848c-3.858,3.617-10.611,5.306-20.5,5.306h-50.405v0.24
		H308.226z"/>
	<polygon fill="#FFFFFF" points="423.026,608.089 495.379,608.089 495.379,636.548 457.997,636.548 457.997,672.966 
		486.456,672.966 486.456,699.254 457.997,699.254 457.997,732.777 495.379,732.777 495.379,761.236 423.026,761.236 	"/>
	<path fill="#FFFFFF" d="M618.862,698.771c0,3.377-1.206,6.512-3.858,9.405c-2.653,2.895-6.512,4.341-11.336,4.341l17.848,48.719
		h-35.452l-16.643-48.719h-4.582v48.719h-34.247V608.089h65.117c7.959,0,13.988,1.688,17.606,5.306
		c3.616,3.618,5.547,8.441,5.547,14.472V698.771L618.862,698.771z M565.08,634.859v52.817h16.641c2.171,0,3.377-0.965,3.377-3.136
		v-46.547c0-2.171-1.206-3.136-3.377-3.136L565.08,634.859L565.08,634.859z"/>
	<path fill="#FFFFFF" d="M724.257,608.089c6.753,0,11.818,1.688,15.194,5.064c3.377,3.377,5.064,7.959,5.064,13.506v73.317
		c0,2.895-0.24,5.548-0.966,8.2c-0.723,2.411-1.929,4.582-3.857,6.513c-1.929,1.93-4.341,3.376-7.478,4.341
		c-3.135,0.965-6.994,1.688-11.816,1.688h-29.184v40.759H657.21V608.089H724.257z M690.975,634.859v60.295h16.883
		c1.447,0,2.412-0.241,2.652-0.725c0.482-0.481,0.482-1.206,0.482-2.412v-54.265c0-1.93-0.965-2.895-3.135-2.895L690.975,634.859
		L690.975,634.859z"/>
	<polygon fill="#FFFFFF" points="845.087,761.236 809.151,761.236 809.151,722.407 776.352,608.089 811.562,608.089 
		826.999,680.201 842.436,608.089 877.888,608.089 845.087,722.407 	"/>
	<polygon fill="#E7BB4B" points="944.211,688.883 944.211,761.236 910.929,761.236 910.929,608.089 947.105,608.089 
		965.676,672.725 984.488,608.089 1020.665,608.089 1020.665,761.236 987.382,761.236 987.382,688.883 965.676,750.143 	"/>
	<path fill="#E7BB4B" d="M1091.33,742.184l-3.136,19.054h-34.488l30.871-153.147h36.659l30.869,153.147h-34.487l-3.136-19.054
		H1091.33L1091.33,742.184z M1095.188,717.824h15.918l-7.718-54.266L1095.188,717.824z"/>
	<polygon fill="#E7BB4B" points="1185.148,608.089 1217.707,608.089 1235.312,669.589 1235.312,608.089 1270.525,608.089 
		1270.525,761.236 1235.312,761.236 1216.983,697.083 1216.983,761.236 1185.148,761.236 	"/>
</g>
</svg>
