<?xml version="1.0" encoding="utf-8"?>
<!-- Generator: Adobe Illustrator 22.1.0, SVG Export Plug-In . SVG Version: 6.00 Build 0)  -->
<svg version="1.1" id="Capa_1" xmlns="http://www.w3.org/2000/svg" xmlns:xlink="http://www.w3.org/1999/xlink" x="0px" y="0px"
	 viewBox="0 0 341.1 341.1" style="enable-background:new 0 0 341.1 341.1;" xml:space="preserve">
<style type="text/css">
	.st0{fill:#F6BC3F;}
</style>
<path class="st0" d="M170.6,0C76.4,0,0,76.4,0,170.6s76.4,170.6,170.6,170.6s170.6-76.4,170.6-170.6S264.8,0,170.6,0z M170.6,65.4
	c29,0,52.6,23.5,52.6,52.6s-23.5,52.6-52.6,52.6c-29,0-52.6-23.5-52.6-52.6S141.5,65.4,170.6,65.4z M262.6,256
	c0,10.9-8.8,19.7-19.7,19.7H98.3c-10.9,0-19.7-8.8-19.7-19.7v-17.1c0-30.5,24.7-55.2,55.2-55.2h6.9c9.2,4.2,19.3,6.6,29.9,6.6
	c10.7,0,20.8-2.4,29.9-6.6h6.9c30.5,0,55.2,24.7,55.2,55.2V256z"/>
</svg>
