<?xml version="1.0" encoding="utf-8"?>
<!-- Generator: Adobe Illustrator 22.1.0, SVG Export Plug-In . SVG Version: 6.00 Build 0)  -->
<svg version="1.1" id="Capa_1" xmlns="http://www.w3.org/2000/svg" xmlns:xlink="http://www.w3.org/1999/xlink" x="0px" y="0px"
	 viewBox="0 0 341.1 341.1" style="enable-background:new 0 0 341.1 341.1;" xml:space="preserve">
<style type="text/css">
	.st0{fill:#F6BC3F;}
</style>
<path class="st0" d="M170.6,0C76.4,0,0,76.4,0,170.6s76.4,170.6,170.6,170.6s170.6-76.4,170.6-170.6S264.8,0,170.6,0z M263.2,93.4
	c14.6,0,26.5,11.9,26.5,26.5c0,14.6-11.9,26.5-26.5,26.5c-14.6,0-26.5-11.9-26.5-26.5C236.7,105.3,248.6,93.4,263.2,93.4z
	 M170.6,66.9c25.6,0,46.3,20.7,46.3,46.3c0,25.6-20.7,46.3-46.3,46.3s-46.3-20.7-46.3-46.3C124.2,87.6,145,66.9,170.6,66.9z
	 M77.9,93.4c14.6,0,26.5,11.9,26.5,26.5c0,14.6-11.9,26.5-26.5,26.5c-14.6,0-26.5-11.9-26.5-26.5C51.5,105.3,63.3,93.4,77.9,93.4z
	 M51.5,212.5c-7.3,0-13.2-5.9-13.2-13.2V186c0-14.6,11.9-26.5,26.5-26.5h26.5c7.3,0,13.9,2.9,18.7,7.7
	c-16.7,9.1-28.5,25.6-31.1,45.2H51.5z M250,232.4c0,11-8.9,19.9-19.9,19.9H111c-11,0-19.9-8.9-19.9-19.9v-11.9
	c0-26.3,21.3-47.6,47.6-47.6h3.4c8.6,4.1,18.2,6.6,28.3,6.6c10.2,0,19.7-2.5,28.3-6.6h3.4c26.3,0,47.6,21.3,47.6,47.6V232.4z
	 M289.7,212.5h-27.3c-2.6-19.6-14.4-36.1-31.1-45.2c4.8-4.8,11.4-7.7,18.7-7.7h26.5c14.6,0,26.5,11.9,26.5,26.5v13.2
	C302.9,206.6,297,212.5,289.7,212.5z"/>
</svg>
